<svg width="515" height="392" viewBox="0 0 515 392" fill="none" xmlns="http://www.w3.org/2000/svg">
<path d="M489.846 146.244C490.666 106.585 458.855 76.0106 419.594 70.3541C369.299 63.1079 298.169 54.7602 237.397 54.7603C170.491 54.7603 109.017 72.9357 72.1848 86.6356C48.9737 95.269 31.3835 114.54 27.4824 138.995C25.1236 153.782 23.8503 171.217 26.2684 187.953C29.8053 212.431 43.6028 245.001 54.1789 267.331C61.7381 283.292 78.0347 292.918 95.695 292.918H381.391C416.169 292.918 448.589 274.35 463.211 242.795C471.453 225.006 479.691 205.145 484.479 187.953C488.076 175.037 489.552 160.427 489.846 146.244Z" fill="#C2D7F3"/>
<path d="M63.7524 304.947C47.1758 309.734 1.11987 336.346 117.684 336.346C234.249 336.346 469.76 321.099 469.76 311.586C469.76 302.073 375.266 294.361 258.702 294.361C142.137 294.361 100.408 294.361 63.7524 304.947Z" fill="#2A8B66"/>
<mask id="mask0_606_91688" style="mask-type:alpha" maskUnits="userSpaceOnUse" x="40" y="294" width="430" height="43">
<path d="M63.7524 304.948C47.1758 309.735 1.11987 336.346 117.684 336.346C234.249 336.346 469.76 321.099 469.76 311.586C469.76 302.073 375.266 294.362 258.702 294.362C142.137 294.362 100.408 294.362 63.7524 304.948Z" fill="#01754E"/>
</mask>
<g mask="url(#mask0_606_91688)">
<path d="M303.738 340.449L204.682 289.777C231.321 268.93 330.521 291.225 380.709 299.912L363.095 325.971L303.738 340.449Z" fill="#01754E"/>
<path d="M249.221 339.242L182.258 287.123C208.896 266.276 206.995 287.124 249.221 287.123L290.482 329.832L249.221 339.242Z" fill="#01754E"/>
</g>
<mask id="mask1_606_91688" style="mask-type:alpha" maskUnits="userSpaceOnUse" x="24" y="54" width="466" height="239">
<path d="M489.846 146.245C490.667 106.587 458.855 76.0118 419.594 70.3553C369.299 63.1092 298.17 54.7614 237.398 54.7615C170.491 54.7615 109.018 72.9369 72.1851 86.6368C48.9739 95.2702 31.3837 114.541 27.4827 138.997C25.1239 153.784 23.8505 171.218 26.2686 187.954C29.8056 212.432 43.603 245.002 54.1791 267.333C61.7383 283.293 78.035 292.919 95.6952 292.919H381.392C416.17 292.919 448.589 274.351 463.211 242.796C471.454 225.008 479.691 205.147 484.479 187.954C488.076 175.038 489.553 160.428 489.846 146.245Z" fill="#C2D7F3"/>
</mask>
<g mask="url(#mask1_606_91688)">
<path d="M408.294 222.811C403.429 218.613 395.887 207.63 404.636 197.282C410.894 201.833 420.386 213.31 408.294 222.811Z" fill="white"/>
<path d="M426.258 247.306C427.634 249.888 428.893 252.554 430.042 255.284C428.807 259.538 429.337 264.423 430.512 269.162C431.49 273.111 432.937 277.046 434.268 280.567C434.404 280.927 434.539 281.282 434.672 281.632C435.848 284.733 436.874 287.435 437.37 289.53L438.779 289.196C438.259 287.003 437.197 284.205 436.031 281.133C435.896 280.777 435.759 280.417 435.622 280.054C434.29 276.533 432.873 272.67 431.917 268.813C430.945 264.89 430.471 261.06 431.003 257.643C435.647 269.446 438.331 282.268 439.605 294.327L441.045 294.175C439.693 281.382 436.764 267.69 431.583 255.214C432.219 253.288 433.267 251.54 434.838 250.041C443.214 249.626 443.478 240.89 442.502 236.393C434.801 237.719 433.384 244.99 433.647 249.179C432.384 250.426 431.444 251.815 430.769 253.308C429.77 251.031 428.694 248.799 427.536 246.626C419.773 232.057 408.301 220.072 391.845 214.764L391.4 216.142C404.923 220.503 415.027 229.509 422.444 240.848C419.473 237.191 414.124 233.5 407.365 236.686C409.449 241.655 415.729 249.983 424.211 243.676C424.92 244.865 425.603 246.076 426.258 247.306Z" fill="white"/>
<path d="M462.243 73.9012L457.797 33.4131L431.069 27.709L435.104 146.007L402.229 111.121C401.66 110.517 401.343 109.718 401.342 108.888L401.319 78.8618C401.319 78.4186 401.228 77.9801 401.052 77.5731L396.783 67.6756C396.464 66.9381 395.354 67.3165 395.552 68.0948L398.316 78.9374C398.396 79.2541 398.429 79.5812 398.413 79.9076L396.852 110.648C396.81 111.485 397.092 112.307 397.639 112.942L435.473 156.814L439.869 285.698H485.502L475.408 193.782L497.747 155.045C498.151 154.344 497.17 153.68 496.67 154.316L474.211 182.882L466.978 117.017C468.791 117.474 470.689 117.716 472.644 117.716C485.424 117.716 495.784 107.356 495.784 94.5768C495.784 81.7973 485.424 71.4374 472.644 71.4374C468.903 71.4374 465.37 72.3251 462.243 73.9012Z" fill="white"/>
<path d="M485.544 68.7889C485.803 68.0322 486.63 67.625 487.369 67.9316C492.115 69.9001 496.072 73.3941 498.613 77.8596C499.009 78.555 498.707 79.4254 497.988 79.7769C497.27 80.1283 496.406 79.8274 496.005 79.1356C493.809 75.3567 490.448 72.3887 486.426 70.6781C485.69 70.365 485.284 69.5457 485.544 68.7889Z" fill="white"/>
<path d="M72.5891 85.5089C72.2417 84.5461 72.7395 83.478 73.7221 83.1915C80.0319 81.3516 86.7777 81.6648 92.8898 84.0815C93.8417 84.4579 94.2383 85.5675 93.8032 86.494C93.3681 87.4204 92.2662 87.8119 91.311 87.4441C86.0937 85.4351 80.3635 85.1691 74.9825 86.6859C73.9973 86.9636 72.9365 86.4717 72.5891 85.5089Z" fill="white"/>
<path fill-rule="evenodd" clip-rule="evenodd" d="M53.7912 134.563C47.8341 122.405 50.853 107.322 61.8487 98.486C74.5922 88.2458 93.2241 90.2751 103.464 103.019C109.816 110.923 111.447 121.094 108.729 130.121C120.999 132.593 129.12 144.421 126.937 156.817C124.72 169.403 112.719 177.809 100.134 175.592C94.3703 174.576 89.4835 171.51 86.0919 167.274L84.3548 218.199L101.554 199.948C102.124 199.344 102.441 198.545 102.442 197.715L102.453 182.542C102.454 182.099 102.544 181.66 102.72 181.253L103.366 179.755C103.684 179.017 104.795 179.396 104.597 180.174L104.119 182.049C104.038 182.365 104.005 182.693 104.022 183.019L104.815 198.652C104.858 199.489 104.576 200.311 104.029 200.946L84.1573 223.989L81.8021 293.031H57.3569L62.7643 243.791L52.9061 226.697C52.5019 225.996 53.4832 225.332 53.9833 225.968L63.4055 237.953L70.4858 173.48C66.974 174.895 62.9908 175.223 59.0524 174.168C49.3968 171.58 43.6667 161.656 46.2539 152C47.7979 146.238 51.9552 141.874 57.109 139.841C56.2804 138.786 55.5348 137.692 54.8712 136.567C52.3647 137.607 50.1557 139.279 48.4697 141.434C48.084 141.927 47.3829 142.067 46.8637 141.718C46.3445 141.369 46.2042 140.662 46.5854 140.165C48.478 137.702 50.9639 135.778 53.7912 134.563ZM80.974 151.156C81.0045 151.156 81.035 151.155 81.0655 151.155C81.0623 151.199 81.0592 151.244 81.0562 151.289C81.0538 151.325 81.0515 151.36 81.0493 151.396C81.0247 151.316 80.9996 151.236 80.974 151.156Z" fill="white"/>
<path d="M121.325 129.644C121.713 128.943 122.597 128.686 123.272 129.116C127.604 131.878 130.895 136.005 132.623 140.844C132.892 141.597 132.444 142.402 131.675 142.624C130.906 142.845 130.109 142.399 129.833 141.648C128.326 137.546 125.53 134.039 121.866 131.657C121.196 131.221 120.938 130.344 121.325 129.644Z" fill="white"/>
</g>
<path d="M111.694 294.227L70.3312 184.804C69.6708 183.057 70.056 182.297 70.3312 182.135L174.961 180.679C187.286 215.779 211.999 286.463 212.25 288.404C212.5 290.345 210.056 293.095 208.803 294.227H111.694Z" fill="#A8B2B9"/>
<path fill-rule="evenodd" clip-rule="evenodd" d="M204.431 292.598L208.615 283.634L210.464 284.497L206.281 293.461L204.431 292.598Z" fill="#121317"/>
<path fill-rule="evenodd" clip-rule="evenodd" d="M203.691 292.637L162.844 181.991L164.759 181.284L205.605 291.93L203.691 292.637Z" fill="#121317"/>
<ellipse cx="138.414" cy="235.789" rx="6.69803" ry="10.2065" transform="rotate(-17.2407 138.414 235.789)" fill="#FD9E1E"/>
<path d="M141.439 245.537C137.906 246.633 133.688 243.157 132.017 237.774C130.346 232.39 131.856 227.137 135.389 226.041" stroke="#121317" stroke-width="2.04096"/>
<path d="M222.986 309.12H284.796L288.642 318.269H222.986V309.12Z" fill="#A8B2B9"/>
<rect width="6.26926" height="4.44073" transform="matrix(-1 0 0 1 281.711 307.443)" fill="#A8B2B9"/>
<rect width="6.26926" height="4.44073" transform="matrix(-1 0 0 1 273.352 307.443)" fill="#A8B2B9"/>
<rect width="6.26926" height="4.44073" transform="matrix(-1 0 0 1 264.993 307.443)" fill="#A8B2B9"/>
<rect width="6.26926" height="4.44073" transform="matrix(-1 0 0 1 256.634 307.443)" fill="#A8B2B9"/>
<rect width="6.26926" height="4.44073" transform="matrix(-1 0 0 1 248.275 307.443)" fill="#A8B2B9"/>
<rect width="6.26926" height="4.44073" transform="matrix(-1 0 0 1 239.916 307.443)" fill="#A8B2B9"/>
<rect width="6.26926" height="4.44073" transform="matrix(-1 0 0 1 231.557 307.443)" fill="#A8B2B9"/>
<rect width="96.8094" height="6.26414" transform="matrix(-1 0 0 1 195.819 312.639)" fill="#A8B2B9"/>
<path d="M172.471 267.648H124.636L104.704 314.914H152.54L172.471 267.648Z" fill="#809B9E"/>
<path d="M269.262 156.413C273.367 151.93 283.119 146.732 289.194 145.593C294.034 152.046 302.576 166.264 298.02 171.503C292.326 178.052 287.782 160.494 273.248 181.469C260.435 169.51 265.003 161.064 269.262 156.413Z" fill="#121317" stroke="#121317" stroke-width="0.569467"/>
<path d="M331.631 185.838L359.819 197.512L356.687 296.884H257.031L245.356 216.304C255.322 188.4 262.554 179.004 268.705 173.309C274.855 167.615 286.643 170.937 291.768 173.309L304.866 180.997C301.354 181.757 295.64 183.161 295.185 190.678C294.615 200.074 309.706 197.512 319.672 197.512C327.644 197.512 330.017 189.729 331.631 185.838Z" fill="#FD9E1E"/>
<path d="M331.061 188.876V157.081L304.284 171.026V181.067C300.751 181.438 294.019 184.079 295.358 191.665C297.032 201.147 310.978 200.032 320.462 198.358C328.049 197.02 330.689 191.479 331.061 188.876Z" fill="#FCB59B"/>
<path d="M331.06 162.95C326.603 170.477 311.745 173.466 304.316 174.019V181.214C323.037 181.214 329.946 168.854 331.06 162.95Z" fill="#FF6F6B" fill-opacity="0.5"/>
<ellipse cx="9.77849" cy="10.4304" rx="9.77849" ry="10.4304" transform="matrix(-0.980446 -0.196786 -0.196786 0.980446 291.654 128.771)" fill="#3E515A"/>
<path d="M282.086 135.44C279.355 159.103 288.687 172.391 306.162 174.408C323.636 176.425 339.614 162.371 341.848 143.016C344.082 123.661 331.726 106.336 314.252 104.319C296.777 102.302 284.817 111.778 282.086 135.44Z" fill="#FCB59B"/>
<ellipse cx="295.172" cy="134.831" rx="2.34715" ry="3.64149" transform="rotate(8.50484 295.172 134.831)" fill="#121317"/>
<ellipse cx="319.09" cy="138.25" rx="2.34715" ry="3.64149" transform="rotate(8.50484 319.09 138.25)" fill="#121317"/>
<ellipse cx="296.807" cy="133.37" rx="1.7084" ry="0.854201" fill="#D9D9D9"/>
<ellipse cx="320.154" cy="136.787" rx="1.7084" ry="0.854201" fill="#D9D9D9"/>
<path fill-rule="evenodd" clip-rule="evenodd" d="M296.626 140.529L303.199 129.985L304.253 130.643L297.68 141.186C297.566 141.368 297.571 141.601 297.716 141.828C297.865 142.06 298.116 142.208 298.376 142.206C299.407 142.199 300.519 142.318 301.397 142.722C301.842 142.927 302.252 143.218 302.551 143.625C302.855 144.04 303.019 144.542 303.019 145.12H301.776C301.776 144.789 301.687 144.548 301.549 144.36C301.406 144.165 301.186 143.993 300.877 143.851C300.245 143.56 299.348 143.442 298.384 143.449C297.644 143.454 297.018 143.041 296.67 142.498C296.319 141.95 296.21 141.195 296.626 140.529Z" fill="#FD706F"/>
<path d="M307.428 162.618C302.682 163.567 300.705 159.059 300.309 156.686C304.106 152.89 310.987 153.522 313.953 154.313C313.755 156.686 312.173 161.669 307.428 162.618Z" fill="#F9FFF9"/>
<path fill-rule="evenodd" clip-rule="evenodd" d="M314.41 154.89C306.509 153.031 301.966 155.693 300.756 157.076C300.54 157.322 300.165 157.347 299.919 157.132C299.672 156.916 299.647 156.541 299.863 156.295C301.421 154.514 306.448 151.798 314.682 153.735C315.001 153.81 315.199 154.129 315.124 154.448C315.049 154.767 314.729 154.965 314.41 154.89Z" fill="#FB6D69"/>
<path d="M292.381 125.339C297.135 123.579 300.342 125.329 302.175 127.544C302.852 128.363 301.883 129.315 300.879 128.967C298.285 128.067 295.298 127.569 292.799 127.319C291.667 127.206 291.314 125.734 292.381 125.339Z" fill="#322827"/>
<path d="M314.581 127.936C319.607 127.272 322.347 129.688 323.644 132.255C324.123 133.203 322.968 133.917 322.066 133.356C319.734 131.904 316.932 130.757 314.551 129.96C313.472 129.599 313.454 128.085 314.581 127.936Z" fill="#322827"/>
<path d="M330.195 142.463C310.377 132.44 307.891 113.23 309.124 104.878C290.901 104.878 282.846 122.343 282.372 133.447C270.982 133.447 268.408 115.983 286.63 102.03C314.876 83.1242 335.794 94.1528 342.723 102.03C359.807 105.732 359.522 128.795 364.078 138.192C368.634 147.588 386.287 140.754 391.982 153.567C396.538 163.818 386.477 172.265 380.877 175.207C382.927 178.852 380.023 185.647 378.315 188.589L376.334 185.742C374.341 194.38 364.078 206.054 330.195 185.742C329.056 174.808 334.288 159.263 337.895 154.802C347.291 153.094 349.557 148.442 349.272 145.595C348.987 142.747 345.855 139.615 339.591 138.192C334.58 137.053 331.239 140.564 330.195 142.463Z" fill="#121317" stroke="#121317" stroke-width="0.569467"/>
<circle cx="340.765" cy="143.96" r="10.7975" fill="#FFB399"/>
<path d="M336.229 145.109C337.909 142.95 342.42 139.063 347.027 140.79C345.587 141.27 342.564 142.662 341.988 144.389" stroke="#FB6D69" stroke-width="1.43967"/>
<path d="M344.868 189.593C325.398 194.383 329.896 217.612 334.578 228.628C340.16 234.855 348.864 252.678 352.518 260.811C349.461 261.49 320.861 269.299 309.62 263.337C300.628 258.568 294.612 257.045 292.728 256.88C292.182 256.612 289.139 256.744 281.331 259.411C271.572 262.745 271.941 272.288 279.045 270.127C284.727 268.399 288.557 269.182 289.761 269.789C284.562 271.333 274.053 275.494 273.608 279.793C273.162 284.092 276.222 283.685 277.807 282.944C276.448 284.179 275.717 287.103 275.521 288.41C276.187 294.562 281.502 291.262 284.076 288.844L280.894 294.217C281.573 297.275 285.464 299.035 295.255 294.528C303.088 290.922 314.022 293.666 318.51 295.489C327.456 295.057 350.696 293.591 372.093 291.173C393.489 288.754 394.332 268.734 392.079 259.026L375.256 202.97C373.239 196.515 364.338 184.802 344.868 189.593Z" fill="#FCB59B" stroke="#FCB59B" stroke-width="0.569467"/>
<path fill-rule="evenodd" clip-rule="evenodd" d="M289.651 256.486C287.81 256.825 285.069 257.534 281.148 258.873C276.127 260.589 273.565 263.956 273.298 266.777C273.164 268.192 273.617 269.506 274.698 270.294C275.772 271.078 277.332 271.245 279.211 270.673C283.067 269.5 286.009 269.519 287.803 269.814C285.35 270.638 282.308 271.836 279.636 273.256C277.949 274.152 276.386 275.149 275.208 276.212C274.044 277.262 273.176 278.449 273.042 279.735C272.925 280.868 273.03 281.759 273.335 282.437C273.647 283.133 274.154 283.568 274.746 283.792C275.26 283.987 275.82 284.016 276.356 283.953C276.093 284.437 275.874 284.956 275.693 285.458C275.302 286.546 275.062 287.64 274.959 288.327L274.948 288.399L274.956 288.472C275.13 290.08 275.62 291.202 276.417 291.855C277.228 292.519 278.233 292.599 279.199 292.399C280.147 292.204 281.137 291.725 282.055 291.142L280.405 293.928L281.385 294.508L284.548 289.166C287.074 285.937 291.334 283.844 295.721 282.553C300.106 281.262 304.529 280.799 307.247 280.769L307.235 279.631C304.425 279.662 299.897 280.137 295.399 281.461C290.93 282.776 286.399 284.956 283.655 288.459C282.388 289.643 280.53 290.962 278.969 291.284C278.202 291.443 277.592 291.345 277.139 290.974C276.679 290.597 276.262 289.843 276.097 288.423C276.196 287.796 276.416 286.815 276.765 285.843C277.134 284.816 277.619 283.887 278.191 283.366L278.236 283.326L278.271 283.277C279.441 281.65 281.281 280.331 283.545 279.278C285.805 278.227 288.452 277.458 291.193 276.91C296.675 275.812 302.461 275.612 306.106 275.766L306.154 274.628C302.438 274.471 296.559 274.674 290.969 275.793C288.173 276.352 285.432 277.144 283.064 278.246C280.754 279.32 278.764 280.704 277.438 282.487C276.71 282.8 275.799 282.973 275.148 282.727C274.833 282.608 274.559 282.384 274.374 281.971C274.18 281.54 274.07 280.87 274.175 279.853C274.265 278.99 274.877 278.045 275.971 277.057C277.051 276.082 278.524 275.136 280.17 274.262C283.46 272.514 287.349 271.1 289.924 270.336L289.993 270.315L290.055 270.278C290.42 270.06 291.162 269.842 292.217 269.651C293.246 269.465 294.495 269.316 295.812 269.2C298.444 268.968 301.309 268.868 303.141 268.848L303.129 267.709C301.276 267.729 298.381 267.83 295.712 268.065C294.378 268.183 293.09 268.335 292.014 268.53C291.12 268.692 290.312 268.893 289.744 269.157C288.162 268.507 284.311 267.931 278.88 269.583C277.208 270.092 276.057 269.876 275.369 269.374C274.688 268.877 274.327 268.002 274.432 266.884C274.645 264.64 276.779 261.569 281.517 259.951C285.404 258.623 288.089 257.932 289.857 257.606C290.742 257.443 291.388 257.373 291.835 257.358C292.059 257.35 292.224 257.357 292.34 257.369C292.443 257.381 292.483 257.395 292.483 257.395L292.573 257.439L292.679 257.448C294.455 257.604 300.393 259.088 309.355 263.841C312.283 265.394 316.284 266.027 320.624 266.124C324.977 266.22 329.735 265.777 334.221 265.129C341.71 264.046 348.496 262.38 351.401 261.667C351.974 261.526 352.396 261.423 352.643 261.368L352.396 260.256C352.135 260.314 351.697 260.421 351.107 260.566C348.173 261.286 341.475 262.93 334.058 264.002C329.606 264.645 324.915 265.08 320.649 264.985C316.369 264.89 312.581 264.263 309.888 262.835C300.991 258.116 294.942 256.533 292.865 256.322C292.738 256.277 292.6 256.253 292.466 256.238C292.28 256.217 292.057 256.211 291.797 256.219C291.276 256.237 290.571 256.316 289.651 256.486Z" fill="#FD706F"/>
<path d="M344.58 189.543C325.111 194.333 329.608 217.562 334.291 228.578C337.388 232.034 345.07 246.018 345.07 246.018C345.07 246.018 377.341 241.185 385.186 237.109L374.968 202.92C372.951 196.465 364.05 184.752 344.58 189.543Z" fill="#FD9E1E"/>
<path fill-rule="evenodd" clip-rule="evenodd" d="M329.768 206.67C329.032 214.59 331.363 223.257 333.727 228.819L333.767 228.913L333.834 228.988C335.333 230.66 337.994 234.958 340.313 238.905C341.465 240.865 342.52 242.717 343.287 244.08C343.671 244.762 343.982 245.32 344.198 245.709C344.306 245.903 344.39 246.054 344.446 246.157L344.532 246.313L344.533 246.314C344.533 246.314 344.533 246.314 345.07 246.018C345.608 245.723 345.608 245.723 345.608 245.723L345.52 245.564C345.463 245.46 345.379 245.308 345.27 245.113C345.054 244.723 344.741 244.162 344.356 243.479C343.586 242.111 342.527 240.252 341.371 238.284C339.107 234.431 336.424 230.079 334.817 228.247C332.512 222.79 330.282 214.387 330.99 206.783C331.345 202.968 332.436 199.388 334.594 196.48C336.744 193.581 339.986 191.306 344.728 190.139L344.434 188.948C339.441 190.176 335.944 192.601 333.608 195.749C331.28 198.888 330.137 202.702 329.768 206.67Z" fill="#121317"/>
<path d="M268.076 166.401L254.645 173.857C252.367 171.897 245.662 167.289 237.071 164.541C228.48 161.793 223.969 167.117 222.787 170.122C223.198 166.856 222.74 159.475 217.621 156.077C211.224 151.83 207.672 155.587 209.419 156.872C211.166 158.158 212.75 169.304 215.151 170.414C217.072 171.302 216.338 177.46 215.73 180.427L218.572 202.809L217.72 220.57C219.441 229.085 234.551 225.993 240.434 225.703L237.081 209.071L240.434 203.263C244.289 201.949 252.8 187.911 256.574 181.055C261.109 178.788 270.41 173.28 271.33 169.386C272.251 165.493 269.544 165.774 268.076 166.401Z" fill="#FCB59B" stroke="#FCB59B" stroke-width="0.569467"/>
<path d="M225.71 278.379C246.21 313.002 255.512 295.273 257.6 282.08L252.216 231.24C251.045 220.181 254.663 209.149 262.156 200.931L255.321 192.183C250.199 203.461 243.759 214.321 239.081 224.279L217.452 219.439C216.997 224.906 222.767 261.01 225.71 278.379Z" fill="#FCB59B"/>
<path fill-rule="evenodd" clip-rule="evenodd" d="M270.087 186.144L261.704 200.455L262.763 201.075L271.145 186.764L270.087 186.144Z" fill="#121317"/>
<path d="M347.951 133.966L341.921 135.107C341.139 105.383 318.073 94.254 307.045 92.4051C307.045 92.4051 309.51 90.3099 311.445 89.9608C312.51 89.7686 314.215 89.9605 314.215 89.9605C339.77 95.0453 347.354 121.416 347.951 133.966Z" fill="#D9D9D9"/>
<path d="M331.693 145.485C330.189 152.98 334.905 160.681 340.255 161.755C348.615 163.432 357.085 159.757 358.875 150.839C360.801 143.351 355.891 134.965 347.531 133.287C340.682 131.912 333.483 136.568 331.693 145.485Z" fill="#D9D9D9"/>
<ellipse cx="12.8412" cy="13.6973" rx="12.8412" ry="13.6973" transform="matrix(-0.980446 -0.196786 -0.196786 0.980446 361.748 136.727)" fill="#3E515A"/>
<ellipse cx="4.9945" cy="5.32747" rx="4.9945" ry="5.32747" transform="matrix(-0.980446 -0.196786 -0.196786 0.980446 352.407 143.389)" fill="#2C3940"/>
<circle cx="5.70412" cy="5.70412" r="5.70412" transform="matrix(-1 0 0 1 260.76 105.935)" fill="#F2F2F2"/>
<circle cx="18.0902" cy="18.0902" r="18.0902" transform="matrix(-1 0 0 1 253.589 69.1012)" fill="#F2F2F2"/>
<path fill-rule="evenodd" clip-rule="evenodd" d="M235.498 69.7535C245.129 69.7535 252.937 77.5609 252.937 87.1918H254.24C254.24 76.8408 245.849 68.4497 235.498 68.4497V69.7535Z" fill="#121317"/>
<circle cx="2.11867" cy="2.11867" r="2.11867" transform="matrix(-1 0 0 1 244.788 85.072)" fill="#121317"/>
<circle cx="2.11867" cy="2.11867" r="2.11867" transform="matrix(-1 0 0 1 237.617 85.072)" fill="#121317"/>
<circle cx="2.11867" cy="2.11867" r="2.11867" transform="matrix(-1 0 0 1 230.446 85.072)" fill="#121317"/>
</svg>
