<svg width="301" height="46" viewBox="0 0 301 46" fill="none" xmlns="http://www.w3.org/2000/svg">
<path fill-rule="evenodd" clip-rule="evenodd" d="M73.8031 37.5362C66.9127 42.6518 56.8981 45.3428 48.2865 45.3428C36.2287 45.3428 25.3536 40.8751 17.1177 33.4461C16.4717 32.8519 17.064 32.0469 17.8172 32.5299C26.701 37.6991 37.6816 40.7677 49.0397 40.7677C56.6834 40.7677 65.0822 39.2057 72.8332 35.9224C73.9641 35.4375 74.9876 36.6756 73.8031 37.5362Z" fill="white"/>
<path fill-rule="evenodd" clip-rule="evenodd" d="M76.7085 34.2565C75.8479 33.1257 70.8952 33.7199 68.6336 33.9882C67.934 34.0955 67.8803 33.5033 68.4726 33.072C72.4017 30.2737 78.9165 31.0806 79.6697 32.0505C80.423 32.9647 79.4551 39.4775 75.7942 42.5461C75.202 43.031 74.6634 42.7627 74.9317 42.1168C75.6869 40.0698 77.571 35.3855 76.7085 34.2565ZM68.7965 13.5316V10.8406C68.7965 10.4094 69.1185 10.141 69.4961 10.141H81.5538C81.9314 10.141 82.2534 10.4094 82.2534 10.8406V13.154C82.2534 13.5316 81.9314 14.0702 81.3391 14.879L75.0946 23.8126C77.4081 23.759 79.8863 24.081 81.9851 25.2674C82.47 25.5357 82.5773 25.9133 82.631 26.3445V29.1965C82.631 29.5741 82.1997 30.059 81.7148 29.7888C78.0003 27.851 73.0496 27.6364 68.9575 29.7888C68.5262 30.0035 68.095 29.5741 68.095 29.1429V26.3982C68.095 25.967 68.095 25.2137 68.5262 24.5678L75.7942 14.1795H69.4961C69.1185 14.1795 68.7965 13.9092 68.7965 13.5316ZM92.6436 9.76346C98.0793 9.76346 101.041 14.4478 101.041 20.422C101.041 26.1816 97.7573 30.7586 92.6436 30.7586C87.3153 30.7586 84.3541 26.0743 84.3541 20.261C84.4077 14.2849 87.3134 9.76346 92.6436 9.76346ZM92.6973 13.5853C90.0063 13.5853 89.7897 17.2998 89.7897 19.5615C89.7897 21.8749 89.7361 26.7739 92.6436 26.7739C95.4956 26.7739 95.6049 22.791 95.6049 20.3684C95.6049 18.8082 95.5493 16.8685 95.0663 15.362C94.6887 14.1239 93.8281 13.5853 92.6973 13.5853ZM59.1595 21.2826C59.1595 22.7374 59.2131 23.9219 58.4599 25.16C57.8676 26.1816 56.9534 26.8275 55.9299 26.8275C54.5307 26.8275 53.6682 25.7523 53.6682 24.1365C53.6682 21.0143 56.4685 20.422 59.1595 20.422V21.2826ZM62.874 30.2718C62.6056 30.4884 62.1744 30.4884 62.0115 30.381C60.7752 29.4112 59.9146 27.9584 59.9146 27.9584C57.9213 30.0035 56.4685 30.6494 53.8311 30.6494C50.7626 30.6494 48.3399 28.7653 48.3399 24.9435C48.3399 21.9841 49.9556 19.9371 52.2691 18.9155C54.2624 18.053 57.0607 17.892 59.1595 17.6237C59.1595 17.6237 59.3224 15.3084 58.7301 14.4995C58.2452 13.8555 57.4383 13.5316 56.6831 13.5316C55.3376 13.5316 53.9921 14.2849 53.7238 15.686C53.6701 16.1153 53.3462 16.4392 53.0242 16.3855L49.5244 16.008C49.2561 15.9543 48.8785 15.686 48.9877 15.2547C49.7927 10.948 53.7219 9.60054 57.2217 9.60054C58.9985 9.60054 61.3675 10.0874 62.7666 11.4329C64.5434 13.1004 64.3824 15.3084 64.3824 17.7847V23.4906C64.3824 25.2137 65.082 25.967 65.7816 26.8831C65.9962 27.2051 66.0499 27.6364 65.7816 27.851C64.9191 28.4433 62.874 30.2737 62.874 30.2737V30.2718ZM10.9821 21.2826C10.9821 22.7374 11.0358 23.9219 10.2806 25.16C9.68839 26.1816 8.77414 26.8275 7.75064 26.8275C6.35148 26.8275 5.48898 25.7523 5.48898 24.1365C5.48898 21.0143 8.28923 20.422 10.9821 20.422V21.2826ZM14.6947 30.2718C14.4264 30.4884 13.9951 30.4884 13.8341 30.381C12.596 29.4112 11.7354 27.9584 11.7354 27.9584C9.74206 30.0035 8.28923 30.6494 5.65189 30.6494C2.58523 30.542 0.160645 28.658 0.160645 24.8361C0.160645 21.8749 1.77639 19.8298 4.08981 18.8082C6.08314 17.9457 8.88148 17.7847 10.9821 17.5145C10.9821 17.5145 11.1431 15.201 10.5509 14.3922C10.066 13.7463 9.25906 13.4243 8.50581 13.4243C7.15839 13.4243 5.81289 14.1775 5.54456 15.5767C5.43723 16.008 5.16698 16.3855 4.84498 16.3319L1.34514 15.9543C1.07681 15.9006 0.699228 15.6304 0.808478 15.201C1.61348 10.8406 5.49089 9.54688 8.98881 9.54688C10.7656 9.54688 13.1346 10.0337 14.5337 11.3792C16.3105 13.0467 16.1495 15.2547 16.1495 17.731V23.437C16.1495 25.16 16.8491 25.9133 17.5486 26.8295C17.7633 27.1515 17.817 27.5827 17.5486 27.7974C16.5832 28.6064 15.6318 29.432 14.6947 30.2737V30.2718ZM25.4626 19.6151C25.4626 17.4071 25.3533 14.3922 27.9926 14.3922C30.5762 14.3922 30.2542 17.4608 30.2542 19.6151V29.6278C30.2542 30.0035 30.5226 30.2737 30.8982 30.3274H34.5591C34.7435 30.3239 34.9195 30.2491 35.0499 30.1187C35.1804 29.9882 35.2552 29.8123 35.2586 29.6278V19.6151C35.2586 18.538 35.205 16.9778 35.5826 16.008C35.7529 15.5576 36.0539 15.1685 36.447 14.8905C36.8401 14.6125 37.3073 14.4583 37.7886 14.4478C38.8658 14.4478 39.6727 14.8235 39.943 16.0616C40.104 16.8149 40.0503 18.8082 40.0503 19.6151V29.6278C40.0503 30.0035 40.3186 30.2737 40.6962 30.3274H44.3571C44.5415 30.3239 44.7175 30.2491 44.8479 30.1187C44.9784 29.9882 45.0532 29.8123 45.0566 29.6278V17.731C45.0566 15.686 45.2713 13.4243 44.1405 11.8085C43.1189 10.3557 41.4495 9.76346 39.8893 9.76346C37.735 9.76346 35.6899 10.8943 34.8293 13.2633C33.8058 10.8943 32.353 9.76346 30.0376 9.76346C27.776 9.76346 26.1085 10.8943 25.1923 13.2633H25.1386V10.8406C25.1352 10.6562 25.0604 10.4802 24.9299 10.3498C24.7995 10.2193 24.6235 10.1445 24.4391 10.141H20.9929C20.8084 10.1445 20.6325 10.2193 20.502 10.3498C20.3716 10.4802 20.2968 10.6562 20.2933 10.8406V29.6278C20.2933 30.0035 20.6172 30.3274 20.9929 30.3274H24.7611C24.9459 30.3244 25.1223 30.2498 25.2532 30.1193C25.384 29.9888 25.4591 29.8126 25.4626 29.6278V19.6151ZM108.847 29.6278C108.844 29.8123 108.769 29.9882 108.638 30.1187C108.508 30.2491 108.332 30.3239 108.148 30.3274H104.487C104.302 30.3239 104.126 30.2491 103.996 30.1187C103.865 29.9882 103.791 29.8123 103.787 29.6278V10.8406C103.787 10.463 104.109 10.141 104.487 10.141H107.879C108.255 10.141 108.577 10.463 108.577 10.6777V13.5335H108.631C109.654 10.948 111.107 9.70979 113.637 9.70979C115.304 9.70979 116.922 10.302 117.944 11.9178C118.913 13.4243 118.913 15.9543 118.913 17.7828V29.6278C118.888 29.7942 118.803 29.9457 118.674 30.0544C118.546 30.1632 118.382 30.222 118.214 30.22H114.553C114.229 30.22 113.959 29.9517 113.907 29.6259V18.2179C113.907 14.3941 112.452 14.2887 111.592 14.2887C110.622 14.2887 109.815 15.04 109.493 15.7952C108.954 16.926 108.899 18.1086 108.899 19.4005L108.847 29.6278Z" fill="white"/>
<path d="M130.432 38.4537C129.896 38.4537 129.625 38.1854 129.625 37.6468V10.9994C129.625 10.4627 129.894 10.1925 130.432 10.1925H132.155C132.692 10.1925 132.962 10.4608 133.07 10.9994L133.286 12.2912C135.278 10.5164 137.537 9.6539 139.96 9.6539C142.544 9.6539 144.537 10.5681 145.99 12.4522C147.443 14.3363 148.196 16.8126 148.196 20.0422C148.196 23.2737 147.443 25.9111 145.883 27.8488C144.321 29.7866 142.276 30.7564 139.692 30.7564C137.323 30.7564 135.278 30.0012 133.555 28.4411V37.6986C133.555 38.2391 133.286 38.5074 132.748 38.5074H130.432V38.4537ZM138.776 27.5805C142.436 27.5805 144.213 25.1041 144.213 20.2051C144.213 17.6751 143.782 15.8447 142.868 14.6066C142.005 13.3684 140.606 12.7761 138.829 12.7761C136.945 12.7761 135.168 13.3684 133.555 14.6066V25.6408C135.278 26.9326 137.001 27.5805 138.776 27.5805ZM153.149 30.2715C152.612 30.2715 152.342 30.0031 152.342 29.4646V1.79365C152.342 1.25698 152.61 0.988647 153.149 0.988647H155.464C156.001 0.988647 156.271 1.25698 156.271 1.79365V12.2912C158.801 10.5164 161.331 9.6539 163.97 9.6539C165.906 9.6539 167.361 10.1388 168.384 11.1604C169.406 12.1839 169.891 13.6367 169.891 15.5745V29.5182C169.891 30.0549 169.623 30.3232 169.084 30.3232H166.769C166.232 30.3232 165.962 30.0549 165.962 29.5182V16.8682C165.962 15.4691 165.693 14.4456 165.099 13.7996C164.507 13.1518 163.646 12.8298 162.408 12.8298C160.309 12.8298 158.262 13.4757 156.271 14.8231V29.5182C156.271 30.0549 156.003 30.3232 155.464 30.3232H153.149V30.2715ZM179.957 30.8101C178.073 30.8101 176.565 30.2715 175.489 29.1943C174.359 28.1171 173.822 26.718 173.822 24.8876C173.822 22.9517 174.52 21.4433 175.867 20.2588C177.213 19.128 179.097 18.5357 181.41 18.5357C182.865 18.5357 184.534 18.7504 186.416 19.1816V16.5443C186.416 15.1451 186.094 14.1216 185.448 13.5294C184.802 12.9371 183.725 12.6669 182.165 12.6669C180.335 12.6669 178.558 12.9371 176.837 13.4757C176.243 13.6367 175.867 13.7441 175.706 13.7441C175.38 13.7441 175.219 13.5294 175.219 13.0445V11.9692C175.219 11.6453 175.275 11.3751 175.382 11.2141C175.489 11.0531 175.704 10.8921 176.028 10.7847C176.835 10.4071 177.858 10.1388 179.15 9.86856C180.377 9.65456 181.62 9.54683 182.865 9.54656C185.395 9.54656 187.225 10.0832 188.41 11.1067C189.592 12.1302 190.184 13.7441 190.184 15.8984V29.4109C190.184 29.9476 189.916 30.2159 189.379 30.2159H187.654C187.171 30.2159 186.848 29.9476 186.794 29.4646L186.579 28.1708C185.609 28.9796 184.586 29.6256 183.455 30.0549C182.355 30.5503 181.163 30.8077 179.957 30.8101ZM180.927 27.8488C181.788 27.8488 182.702 27.6878 183.672 27.3121C184.642 26.9863 185.556 26.4496 186.416 25.8037V21.7653C185.017 21.4433 183.618 21.2286 182.219 21.2286C179.258 21.2286 177.751 22.3595 177.751 24.6729C177.751 25.6945 178.019 26.4496 178.556 26.9882C179.097 27.5805 179.85 27.8488 180.927 27.8488ZM196.214 30.2715C195.678 30.2715 195.407 30.0031 195.407 29.4646V10.9994C195.407 10.4627 195.676 10.1925 196.214 10.1925H197.937C198.206 10.1925 198.422 10.2461 198.53 10.3535C198.691 10.4608 198.798 10.6774 198.852 10.9457L199.12 13.1518C199.821 12.3986 200.519 11.8063 201.113 11.3233C201.713 10.9154 202.364 10.5892 203.049 10.3535C203.746 10.134 204.473 10.0254 205.204 10.0315C205.527 10.0315 205.849 10.0315 206.173 10.0851C206.605 10.1388 206.819 10.3535 206.819 10.7847V12.9371C206.819 13.4221 206.605 13.6367 206.12 13.6367C205.903 13.6367 205.635 13.6367 205.42 13.5831C205.203 13.5831 204.935 13.5294 204.665 13.5294C202.566 13.5294 200.736 14.1753 199.229 15.4135V29.409C199.229 29.9476 198.961 30.2178 198.422 30.2178H196.214V30.2715ZM210.909 30.2715C210.373 30.2715 210.104 30.0031 210.104 29.4646V10.9994C210.104 10.4627 210.373 10.1925 210.909 10.1925H212.634C212.903 10.1925 213.117 10.2461 213.225 10.3535C213.386 10.4608 213.493 10.6774 213.549 10.9457L213.763 12.2376C216.293 10.5145 218.77 9.60023 221.139 9.60023C223.615 9.60023 225.229 10.5145 226.145 12.3986C228.782 10.5145 231.366 9.60023 234.003 9.60023C235.834 9.60023 237.233 10.1369 238.203 11.1604C239.173 12.1839 239.656 13.6367 239.656 15.5745V29.5182C239.656 30.0549 239.387 30.3232 238.849 30.3232H236.533C235.997 30.3232 235.726 30.0549 235.726 29.5182V16.6497C235.726 15.3579 235.458 14.3344 234.973 13.7421C234.488 13.0962 233.681 12.7742 232.604 12.7742C230.666 12.7742 228.729 13.3665 226.791 14.551C226.791 14.712 226.845 14.9266 226.845 15.1432V29.4626C226.845 29.9993 226.576 30.2676 226.038 30.2676H223.722C223.184 30.2676 222.915 29.9993 222.915 29.4626V16.6497C222.915 15.3579 222.647 14.3344 222.16 13.7421C221.677 13.0962 220.868 12.7742 219.793 12.7742C217.8 12.7742 215.864 13.3665 214.032 14.4973V29.4626C214.032 29.9993 213.763 30.2676 213.227 30.2676H210.909V30.2715ZM249.722 30.8101C247.838 30.8101 246.329 30.2715 245.256 29.1943C244.125 28.1171 243.587 26.718 243.587 24.8876C243.587 22.9517 244.286 21.4433 245.632 20.2588C246.977 19.128 248.861 18.5357 251.177 18.5357C252.629 18.5357 254.299 18.7504 256.183 19.1816V16.5443C256.183 15.1451 255.859 14.1216 255.213 13.5294C254.567 12.9371 253.49 12.6669 251.93 12.6669C250.1 12.6669 248.323 12.9371 246.602 13.4757C246.007 13.6367 245.632 13.7441 245.471 13.7441C245.147 13.7441 244.986 13.5294 244.986 13.0445V11.9692C244.986 11.6453 245.039 11.3751 245.147 11.2141C245.254 11.0531 245.471 10.8921 245.793 10.7847C246.6 10.4071 247.623 10.1388 248.917 9.86856C250.143 9.65467 251.385 9.54694 252.63 9.54656C255.16 9.54656 256.99 10.0832 258.174 11.1067C259.359 12.1302 259.951 13.7441 259.951 15.8984V29.4109C259.951 29.9476 259.683 30.2159 259.142 30.2159H257.421C256.936 30.2159 256.612 29.9476 256.559 29.4646L256.344 28.1708C255.374 28.9796 254.351 29.6256 253.22 30.0549C252.091 30.4861 250.906 30.8101 249.722 30.8101ZM250.692 27.8488C251.554 27.8488 252.468 27.6878 253.436 27.3121C254.406 26.9863 255.32 26.4496 256.183 25.8037V21.7653C254.784 21.4433 253.385 21.2286 251.984 21.2286C249.022 21.2286 247.516 22.3595 247.516 24.6729C247.516 25.6945 247.784 26.4496 248.323 26.9882C248.861 27.5805 249.668 27.8488 250.692 27.8488ZM273.569 30.7008C270.447 30.7008 268.08 29.7866 266.41 28.0098C264.743 26.2331 263.934 23.6494 263.934 20.2588C263.934 16.9219 264.796 14.3363 266.464 12.5059C268.187 10.6774 270.556 9.76123 273.678 9.76123C275.077 9.76123 276.477 10.0296 277.876 10.5145C278.144 10.6218 278.361 10.7311 278.47 10.8921C278.575 11.0531 278.629 11.3233 278.629 11.699V12.7761C278.629 13.3128 278.468 13.5831 278.092 13.5831C277.983 13.5831 277.769 13.5294 277.447 13.4757C276.381 13.1529 275.274 12.9895 274.161 12.9908C271.955 12.9908 270.34 13.5294 269.37 14.6583C268.402 15.7891 267.917 17.5678 267.917 20.0441V20.5808C267.917 23.0035 268.402 24.7266 269.425 25.8574C270.393 26.9882 271.955 27.5249 274.108 27.5249C275.238 27.5249 276.423 27.3639 277.661 26.9882C277.93 26.9326 278.146 26.879 278.253 26.879C278.575 26.879 278.79 27.1473 278.79 27.6878V28.7631C278.79 29.087 278.738 29.3572 278.629 29.5182C278.522 29.6792 278.307 29.8402 277.983 29.9476C276.801 30.4325 275.292 30.7008 273.569 30.7008ZM285.575 38.9386C284.813 38.9422 284.053 38.8521 283.313 38.6703C283.186 38.6544 283.063 38.6128 282.952 38.5479C282.841 38.483 282.744 38.3962 282.668 38.2927C282.56 38.1298 282.507 37.8615 282.507 37.4839V36.4623C282.507 35.9774 282.721 35.7071 283.099 35.7071C283.206 35.7071 283.421 35.7071 283.691 35.7627C283.959 35.8164 284.337 35.8164 284.766 35.8164C285.736 35.8164 286.489 35.5481 287.082 35.0612C287.674 34.5782 288.159 33.7157 288.588 32.4776L289.343 30.4861L281.698 11.6453C281.537 11.2141 281.429 10.8921 281.429 10.6774C281.429 10.3535 281.59 10.1925 281.966 10.1925H284.337C284.766 10.1925 285.036 10.2461 285.197 10.4071C285.358 10.5145 285.52 10.8384 285.682 11.2696L291.227 26.6643L296.556 11.3233C296.717 10.8921 296.88 10.5681 297.041 10.4608C297.202 10.3535 297.472 10.2461 297.903 10.2461H300.107C300.485 10.2461 300.648 10.4071 300.648 10.7311C300.648 10.8921 300.538 11.2141 300.379 11.699L291.659 33.8786C290.957 35.7071 290.096 37.0009 289.18 37.8078C288.266 38.5074 287.028 38.9386 285.575 38.9386Z" fill="#5BC6B8"/>
</svg>
