<svg width="340" height="471" viewBox="0 0 340 471" fill="none" xmlns="http://www.w3.org/2000/svg">
<g style="mix-blend-mode:overlay" opacity="0.58">
<path d="M206.95 199.6L206.95 207.21L199.33 207.21L199.33 214.79L206.95 214.79L206.95 222.4L214.52 222.4L214.52 214.79L222.13 214.79L222.13 207.21L214.52 207.21L214.52 199.6L206.95 199.6Z" fill="#2563EB"/>
</g>
<g style="mix-blend-mode:overlay" opacity="0.44">
<path d="M6.06 51.76L6.06 57.82L2.08795e-06 57.82L2.26736e-06 63.84L6.06 63.84L6.06 69.9L12.08 69.9L12.08 63.84L18.14 63.84L18.14 57.82L12.08 57.82L12.08 51.76L6.06 51.76Z" fill="#2563EB"/>
</g>
<g style="mix-blend-mode:overlay" opacity="0.21">
<path d="M301.23 393.48L301.23 397.68L297.03 397.68L297.03 401.85L301.23 401.85L301.23 406.05L305.4 406.05L305.4 401.85L309.6 401.85L309.6 397.68L305.4 397.68L305.4 393.48L301.23 393.48Z" fill="#2563EB"/>
</g>
<g style="mix-blend-mode:overlay" opacity="0.88">
<path d="M158.3 301.54L158.3 323.75L136.09 323.75L136.09 345.83L158.3 345.83L158.3 368.04L180.39 368.04L180.39 345.83L202.59 345.83L202.59 323.75L180.39 323.75L180.39 301.54L158.3 301.54Z" fill="#2563EB"/>
</g>
<g style="mix-blend-mode:overlay" opacity="0.25">
<path d="M123.76 160.43L123.76 176.83L107.36 176.83L107.36 193.14L123.76 193.14L123.76 209.53L140.07 209.53L140.07 193.14L156.46 193.14L156.46 176.83L140.07 176.83L140.07 160.43L123.76 160.43Z" fill="#2563EB"/>
</g>
<g style="mix-blend-mode:overlay" opacity="0.98">
<path d="M168.48 87.05L168.48 105.22L150.3 105.22L150.3 123.3L168.48 123.3L168.48 141.47L186.55 141.47L186.55 123.3L204.73 123.3L204.73 105.22L186.55 105.22L186.55 87.05L168.48 87.05Z" fill="#2563EB"/>
</g>
<g style="mix-blend-mode:overlay" opacity="0.5">
<path d="M250.24 99.5195L250.24 122L227.75 122L227.75 144.37L250.24 144.37L250.24 166.85L272.6 166.85L272.6 144.37L295.09 144.37L295.09 122L272.6 122L272.6 99.5195L250.24 99.5195Z" fill="#2563EB"/>
</g>
<g style="mix-blend-mode:overlay" opacity="0.96">
<path d="M58.4797 165.739L58.4797 171.299L52.9297 171.299L52.9297 176.819L58.4797 176.819L58.4797 182.379L63.9997 182.379L63.9997 176.819L69.5597 176.819L69.5597 171.299L63.9997 171.299L63.9997 165.739L58.4797 165.739Z" fill="#2563EB"/>
</g>
<g style="mix-blend-mode:overlay" opacity="0.21">
<path d="M186.16 273.26L186.16 285.41L174.01 285.41L174.01 297.5L186.16 297.5L186.16 309.65L198.25 309.65L198.25 297.5L210.4 297.5L210.4 285.41L198.25 285.41L198.25 273.26L186.16 273.26Z" fill="#2563EB"/>
</g>
<g style="mix-blend-mode:overlay" opacity="0.24">
<path d="M308.24 338.65L308.24 342.78L304.12 342.78L304.12 346.88L308.24 346.88L308.24 351.01L312.35 351.01L312.35 346.88L316.47 346.88L316.47 342.78L312.35 342.78L312.35 338.65L308.24 338.65Z" fill="#2563EB"/>
</g>
<g style="mix-blend-mode:overlay" opacity="0.8">
<path d="M329.52 419.07L329.52 423.93L324.65 423.93L324.65 428.77L329.52 428.77L329.52 433.64L334.36 433.64L334.36 428.77L339.23 428.77L339.23 423.93L334.36 423.93L334.36 419.07L329.52 419.07Z" fill="#2563EB"/>
</g>
<g style="mix-blend-mode:overlay" opacity="0.27">
<path d="M171.42 424.68L171.42 430.1L165.99 430.1L165.99 435.5L171.42 435.5L171.42 440.93L176.82 440.93L176.82 435.5L182.25 435.5L182.25 430.1L176.82 430.1L176.82 424.68L171.42 424.68Z" fill="#2563EB"/>
</g>
<g style="mix-blend-mode:overlay" opacity="0.9">
<path d="M248.6 191.46L248.6 218.82L221.25 218.82L221.25 246.04L248.6 246.04L248.6 273.4L275.82 273.4L275.82 246.04L303.18 246.04L303.18 218.82L275.82 218.82L275.82 191.46L248.6 191.46Z" fill="#2563EB"/>
</g>
<g style="mix-blend-mode:overlay" opacity="0.26">
<path d="M137.75 366.3L137.75 372.16L131.88 372.16L131.88 378L137.75 378L137.75 383.86L143.58 383.86L143.58 378L149.44 378L149.44 372.16L143.58 372.16L143.58 366.3L137.75 366.3Z" fill="#2563EB"/>
</g>
<g style="mix-blend-mode:overlay" opacity="0.39">
<path d="M191.38 317.66L191.38 352.88L156.16 352.88L156.16 387.92L191.38 387.92L191.38 423.14L226.41 423.14L226.41 387.92L261.63 387.92L261.63 352.88L226.41 352.88L226.41 317.66L191.38 317.66Z" fill="#2563EB"/>
</g>
<g style="mix-blend-mode:overlay" opacity="0.59">
<path d="M175.42 154.47L175.42 169.59L160.3 169.59L160.3 184.63L175.42 184.63L175.42 199.75L190.46 199.75L190.46 184.63L205.58 184.63L205.58 169.59L190.46 169.59L190.46 154.47L175.42 154.47Z" fill="#2563EB"/>
</g>
<g style="mix-blend-mode:overlay" opacity="0.87">
<path d="M107.99 293.739L107.99 298.239L103.49 298.239L103.49 302.719L107.99 302.719L107.99 307.229L112.47 307.229L112.47 302.719L116.98 302.719L116.98 298.239L112.47 298.239L112.47 293.739L107.99 293.739Z" fill="#2563EB"/>
</g>
<g style="mix-blend-mode:overlay" opacity="0.32">
<path d="M259.5 264.04L259.5 284.69L238.84 284.69L238.84 305.24L259.5 305.24L259.5 325.9L280.05 325.9L280.05 305.24L300.71 305.24L300.71 284.69L280.05 284.69L280.05 264.04L259.5 264.04Z" fill="#2563EB"/>
</g>
<g style="mix-blend-mode:overlay" opacity="0.3">
<path d="M242.51 303.53L242.51 332.96L213.09 332.96L213.09 362.23L242.51 362.23L242.51 391.66L271.79 391.66L271.79 362.23L301.22 362.23L301.22 332.96L271.79 332.96L271.79 303.53L242.51 303.53Z" fill="#2563EB"/>
</g>
<g style="mix-blend-mode:overlay" opacity="0.51">
<path d="M18.8703 105.81L18.8703 111.4L13.2803 111.4L13.2803 116.96L18.8703 116.96L18.8703 122.55L24.4403 122.55L24.4403 116.96L30.0303 116.96L30.0303 111.4L24.4403 111.4L24.4403 105.81L18.8703 105.81Z" fill="#2563EB"/>
</g>
<g style="mix-blend-mode:overlay" opacity="0.31">
<path d="M52.7503 72.3398L52.7503 79.2698L45.8203 79.2698L45.8203 86.1698L52.7503 86.1698L52.7503 93.1098L59.6503 93.1098L59.6503 86.1698L66.5803 86.1698L66.5803 79.2698L59.6503 79.2698L59.6503 72.3398L52.7503 72.3398Z" fill="#2563EB"/>
</g>
<g style="mix-blend-mode:overlay" opacity="0.66">
<path d="M83.12 201.49L83.12 222.7L61.91 222.7L61.91 243.8L83.12 243.8L83.12 265L104.21 265L104.21 243.8L125.42 243.8L125.42 222.7L104.21 222.7L104.21 201.49L83.12 201.49Z" fill="#2563EB"/>
</g>
<g style="mix-blend-mode:overlay" opacity="0.45">
<path d="M139.87 30.75L139.87 49.83L120.78 49.83L120.78 68.83L139.87 68.83L139.87 87.91L158.86 87.91L158.86 68.83L177.95 68.83L177.95 49.83L158.86 49.83L158.86 30.75L139.87 30.75Z" fill="#2563EB"/>
</g>
<g style="mix-blend-mode:overlay" opacity="0.88">
<path d="M82.3 -8.78645e-07L82.3 29.46L52.83 29.46L52.83 58.77L82.3 58.77L82.3 88.24L111.61 88.24L111.61 58.77L141.07 58.77L141.07 29.46L111.61 29.46L111.61 -1.75252e-06L82.3 -8.78645e-07Z" fill="#2563EB"/>
</g>
<g style="mix-blend-mode:overlay" opacity="0.28">
<path d="M223.71 148.8L223.71 159.83L212.68 159.83L212.68 170.79L223.71 170.79L223.71 181.82L234.67 181.82L234.67 170.79L245.7 170.79L245.7 159.83L234.67 159.83L234.67 148.8L223.71 148.8Z" fill="#2563EB"/>
</g>
<g style="mix-blend-mode:overlay" opacity="0.91">
<path d="M232.49 422.76L232.49 442.46L212.79 442.46L212.79 462.06L232.49 462.06L232.49 481.77L252.09 481.77L252.09 462.06L271.8 462.06L271.8 442.46L252.09 442.46L252.09 422.76L232.49 422.76Z" fill="#2563EB"/>
</g>
<g style="mix-blend-mode:overlay" opacity="0.93">
<path d="M166.96 15.01L166.96 19.1L162.87 19.1L162.87 23.18L166.96 23.18L166.96 27.27L171.04 27.27L171.04 23.18L175.13 23.18L175.13 19.1L171.04 19.1L171.04 15.01L166.96 15.01Z" fill="#2563EB"/>
</g>
<g style="mix-blend-mode:overlay" opacity="0.53">
<path d="M94.0196 90.6895L94.0196 115.899L68.8096 115.899L68.8096 140.989L94.0196 140.989L94.0196 166.209L119.11 166.209L119.11 140.989L144.33 140.989L144.33 115.899L119.11 115.899L119.11 90.6895L94.0196 90.6895Z" fill="#2563EB"/>
</g>
<g style="mix-blend-mode:overlay" opacity="0.89">
<path d="M146.26 195.96L146.26 229.37L112.85 229.37L112.85 262.59L146.26 262.59L146.26 296L179.49 296L179.49 262.59L212.89 262.59L212.89 229.37L179.49 229.37L179.49 195.96L146.26 195.96Z" fill="#2563EB"/>
</g>
</svg>
