<svg width="40" height="41" viewBox="0 0 40 41" fill="none" xmlns="http://www.w3.org/2000/svg">
<g clip-path="url(#clip0_49_115912)">
<path d="M20 0.5C8.95312 0.5 0 9.45312 0 20.5C0 31.5469 8.95312 40.5 20 40.5C31.0469 40.5 40 31.5469 40 20.5C40 9.45312 31.0469 0.5 20 0.5ZM32.4844 32.9766C30.8594 34.6016 28.9766 35.875 26.875 36.7578C24.7031 37.6797 22.3906 38.1406 20 38.1406C17.6172 38.1406 15.3047 37.6719 13.125 36.7578C11.0234 35.8672 9.13281 34.5938 7.51562 32.9766C5.89062 31.3516 4.61719 29.4688 3.73438 27.3672C2.8125 25.1953 2.34375 22.8828 2.34375 20.5C2.34375 18.1172 2.8125 15.8047 3.72656 13.625C4.61719 11.5234 5.89062 9.63281 7.50781 8.01562C9.14062 6.39062 11.0234 5.11719 13.125 4.22656C15.3047 3.3125 17.6172 2.84375 20 2.84375C22.3828 2.84375 24.6953 3.3125 26.875 4.22656C28.9766 5.11719 30.8672 6.39063 32.4844 8.00781C34.1094 9.63281 35.3828 11.5156 36.2656 13.6172C37.1875 15.7891 37.6484 18.1016 37.6484 20.4922C37.6484 22.875 37.1797 25.1875 36.2656 27.3672C35.375 29.4688 34.1016 31.3594 32.4844 32.9766Z" fill="#E0EEF9"/>
<path d="M22.6406 13.6797C23.4453 13.6797 24.3047 13.9297 24.3047 13.9297L24.8203 10.8672C24.8203 10.8672 23.7266 10.4922 21.1172 10.4922C19.5156 10.4922 18.5859 11.1016 17.9062 12C17.2656 12.8516 17.2422 14.2188 17.2422 15.1016V17.1094H15.1719V20.1016H17.2422V30.4922H21.1172V20.1016H24.1875L24.4141 17.1094H21.1172V14.7734C21.1172 13.9688 21.8359 13.6797 22.6406 13.6797Z" fill="#E0EEF9"/>
</g>
<defs>
<clipPath id="clip0_49_115912">
<rect width="40" height="40" fill="white" transform="translate(0 0.5)"/>
</clipPath>
</defs>
</svg>
