<svg width="75" height="593" viewBox="0 0 75 593" fill="none" xmlns="http://www.w3.org/2000/svg">
<g clip-path="url(#clip0_47_102712)">
<circle cx="35" cy="35" r="25.1562" fill="#C0E6C8" stroke="#28A745" stroke-width="2.1875"/>
<circle cx="35" cy="35" r="33.9062" stroke="#28A745" stroke-width="2.1875"/>
<path d="M42.8211 45.8975V48.75H29.0836V45.8975H34.3336V30.1125C34.3336 29.5525 34.3511 28.9808 34.3861 28.3975L30.3436 31.81C30.1686 31.95 29.9878 32.0433 29.8011 32.09C29.6261 32.125 29.457 32.125 29.2936 32.09C29.142 32.055 29.002 32.0025 28.8736 31.9325C28.757 31.8508 28.6636 31.7633 28.5936 31.67L27.4211 30.025L35.0161 23.4975H38.0786V45.8975H42.8211Z" fill="#040D09"/>
<rect width="0" height="104" transform="translate(35 72.1212)" fill="#DFDFDF"/>
<line x1="35.7955" y1="72.9167" x2="35.7955" y2="175.326" stroke="#DFDFDF" stroke-width="1.59091" stroke-linecap="round"/>
</g>
<rect width="0" height="222" transform="translate(35 310)" fill="#C8C8C8"/>
<line x1="35.7955" y1="310.795" x2="35.7955" y2="531.205" stroke="#DFDFDF" stroke-width="1.59091" stroke-linecap="round"/>
<circle cx="35" cy="199" r="25.1562" fill="#FAEDC9" stroke="#FAEDC9" stroke-width="2.1875"/>
<circle cx="35" cy="199" r="33.9062" stroke="#FAEDC9" stroke-width="2.1875"/>
<path d="M42.0686 209.197C42.477 209.197 42.7978 209.32 43.0311 209.565C43.2645 209.798 43.3811 210.102 43.3811 210.475V212.75H26.3361V211.472C26.3361 211.216 26.3886 210.947 26.4936 210.667C26.5986 210.387 26.7678 210.131 27.0011 209.897L34.8411 202.04C35.5061 201.375 36.0953 200.739 36.6086 200.132C37.1336 199.526 37.577 198.919 37.9386 198.312C38.312 197.706 38.592 197.093 38.7786 196.475C38.977 195.845 39.0761 195.186 39.0761 194.497C39.0761 193.832 38.9711 193.249 38.7611 192.747C38.5628 192.234 38.2828 191.814 37.9211 191.487C37.5711 191.149 37.1453 190.898 36.6436 190.735C36.1536 190.56 35.6111 190.472 35.0161 190.472C34.4445 190.472 33.9136 190.554 33.4236 190.717C32.9453 190.881 32.5136 191.108 32.1286 191.4C31.7553 191.692 31.4403 192.042 31.1836 192.45C30.9386 192.847 30.7578 193.284 30.6411 193.762C30.4661 194.241 30.2386 194.562 29.9586 194.725C29.6903 194.888 29.2936 194.923 28.7686 194.83L26.7911 194.48C26.9661 193.29 27.2928 192.246 27.7711 191.347C28.2611 190.449 28.8736 189.702 29.6086 189.107C30.3436 188.501 31.1836 188.046 32.1286 187.742C33.0853 187.427 34.1178 187.27 35.2261 187.27C36.3461 187.27 37.3728 187.439 38.3061 187.777C39.2511 188.104 40.062 188.577 40.7386 189.195C41.427 189.802 41.9636 190.542 42.3486 191.417C42.7336 192.292 42.9261 193.278 42.9261 194.375C42.9261 195.308 42.7861 196.172 42.5061 196.965C42.2378 197.758 41.8703 198.517 41.4036 199.24C40.937 199.963 40.3886 200.669 39.7586 201.357C39.1403 202.034 38.487 202.722 37.7986 203.422L31.7086 209.652C32.2103 209.512 32.712 209.402 33.2136 209.32C33.727 209.238 34.2111 209.197 34.6661 209.197H42.0686Z" fill="#111827"/>
<line x1="35.8203" y1="237.008" x2="35.8203" y2="369.367" stroke="#DFDFDF" stroke-width="1.64062" stroke-linecap="round"/>
<circle cx="35" cy="379" r="35" fill="#E7F8F7"/>
<path d="M26.9136 374.48C27.0886 373.29 27.4153 372.246 27.8936 371.347C28.3836 370.449 28.9961 369.702 29.7311 369.107C30.4661 368.501 31.3061 368.046 32.2511 367.742C33.2078 367.427 34.2403 367.27 35.3486 367.27C36.4686 367.27 37.4836 367.433 38.3936 367.76C39.3153 368.075 40.1028 368.518 40.7561 369.09C41.4211 369.662 41.9286 370.344 42.2786 371.137C42.6403 371.931 42.8211 372.8 42.8211 373.745C42.8211 374.55 42.722 375.262 42.5236 375.88C42.337 376.487 42.0628 377.023 41.7011 377.49C41.3511 377.957 40.9195 378.347 40.4061 378.662C39.8928 378.977 39.3153 379.24 38.6736 379.45C40.237 379.905 41.4095 380.634 42.1911 381.637C42.9728 382.629 43.3636 383.877 43.3636 385.382C43.3636 386.596 43.1361 387.675 42.6811 388.62C42.2261 389.565 41.6078 390.364 40.8261 391.017C40.0561 391.671 39.152 392.172 38.1136 392.522C37.087 392.861 35.9961 393.03 34.8411 393.03C33.5461 393.03 32.4261 392.878 31.4811 392.575C30.5361 392.26 29.7195 391.817 29.0311 391.245C28.3545 390.662 27.7886 389.962 27.3336 389.145C26.8786 388.328 26.4936 387.412 26.1786 386.397L27.8061 385.715C28.2378 385.528 28.6461 385.476 29.0311 385.557C29.4278 385.639 29.7136 385.855 29.8886 386.205C30.0753 386.578 30.2853 386.981 30.5186 387.412C30.752 387.832 31.0495 388.223 31.4111 388.585C31.7845 388.935 32.2395 389.232 32.7761 389.477C33.3245 389.711 33.9953 389.827 34.7886 389.827C35.5936 389.827 36.2936 389.699 36.8886 389.442C37.4953 389.174 37.997 388.836 38.3936 388.427C38.802 388.007 39.1053 387.541 39.3036 387.027C39.502 386.514 39.6011 386.007 39.6011 385.505C39.6011 384.875 39.5253 384.297 39.3736 383.772C39.222 383.236 38.9245 382.781 38.4811 382.407C38.0495 382.034 37.4311 381.742 36.6261 381.532C35.8328 381.311 34.7886 381.2 33.4936 381.2V378.487C34.5553 378.476 35.4478 378.371 36.1711 378.172C36.9061 377.962 37.4895 377.682 37.9211 377.332C38.3645 376.971 38.6795 376.539 38.8661 376.037C39.0645 375.536 39.1636 374.987 39.1636 374.392C39.1636 373.751 39.0645 373.185 38.8661 372.695C38.6678 372.205 38.3878 371.797 38.0261 371.47C37.6761 371.132 37.2561 370.881 36.7661 370.717C36.2761 370.554 35.7336 370.472 35.1386 370.472C34.567 370.472 34.0361 370.554 33.5461 370.717C33.0678 370.881 32.6361 371.108 32.2511 371.4C31.8778 371.692 31.5628 372.042 31.3061 372.45C31.0495 372.847 30.8628 373.284 30.7461 373.762C30.5828 374.241 30.3611 374.562 30.0811 374.725C29.8128 374.888 29.4161 374.923 28.8911 374.83L26.9136 374.48Z" fill="#111827"/>
<circle cx="40" cy="558" r="35" fill="#F1F8FE"/>
<path d="M42.4661 562.44V553.235C42.4661 552.5 42.5186 551.695 42.6236 550.82L34.1536 562.44H42.4661ZM49.2211 562.44V564.61C49.2211 564.82 49.1511 565.001 49.0111 565.152C48.8828 565.304 48.6845 565.38 48.4161 565.38H45.7386V571.75H42.4661V565.38H31.5636C31.2953 565.38 31.062 565.304 30.8636 565.152C30.677 564.989 30.5545 564.791 30.4961 564.557L30.1111 562.632L42.2036 546.532H45.7386V562.44H49.2211Z" fill="#111827"/>
<defs>
<clipPath id="clip0_47_102712">
<rect width="70" height="164" fill="white"/>
</clipPath>
</defs>
</svg>
