<svg width="20" height="20" viewBox="0 0 20 20" fill="none" xmlns="http://www.w3.org/2000/svg">
<path fill-rule="evenodd" clip-rule="evenodd" d="M10 -0.000244141C4.47715 -0.000244141 0 4.47691 0 9.99976C0 15.5226 4.47715 19.9998 10 19.9998C15.5228 19.9998 20 15.5226 20 9.99976C20 4.47691 15.5228 -0.000244141 10 -0.000244141ZM14.7071 7.29289C15.0976 7.68342 15.0976 8.31658 14.7071 8.70711L9.70711 13.7071C9.31658 14.0976 8.68342 14.0976 8.29289 13.7071L5.79289 11.2071C5.40237 10.8166 5.40237 10.1834 5.79289 9.79289C6.18342 9.40237 6.81658 9.40237 7.20711 9.79289L9 11.5858L13.2929 7.29289C13.6834 6.90237 14.3166 6.90237 14.7071 7.29289Z" fill="#5BC6B8"/>
</svg>
