<svg width="24" height="25" viewBox="0 0 24 25" fill="none" xmlns="http://www.w3.org/2000/svg">
<path fill-rule="evenodd" clip-rule="evenodd" d="M19.7071 6.27693C20.0976 5.88641 20.0976 5.25324 19.7071 4.86272C19.3166 4.47219 18.6834 4.47219 18.2929 4.86272L4.29289 18.8627C3.90237 19.2532 3.90237 19.8864 4.29289 20.2769C4.68342 20.6675 5.31658 20.6675 5.70711 20.2769L7.65918 18.3249C11.1458 20.2456 15.6419 19.6797 18.5336 16.6273L21.091 13.9279C21.8082 13.1708 21.8233 11.9896 21.1256 11.2145L18.6897 8.50788C18.4961 8.29279 18.2948 8.08935 18.0865 7.89756L19.7071 6.27693ZM15.4462 10.5379L13.9323 12.0518C13.9764 12.217 14 12.3907 14 12.5698C14 13.6744 13.1046 14.5698 12 14.5698C11.8208 14.5698 11.6472 14.5463 11.482 14.5021L9.96803 16.016C10.5635 16.3679 11.2582 16.5698 12 16.5698C14.2091 16.5698 16 14.779 16 12.5698C16 11.828 15.7981 11.1334 15.4462 10.5379Z" fill="#CBD5E1"/>
<path d="M5.31042 8.50788C7.86049 5.67447 11.7607 4.86204 15.085 6.07062L12.5485 8.60712C12.3692 8.58253 12.1861 8.56982 12 8.56982C9.79086 8.56982 8 10.3607 8 12.5698C8 12.7559 8.0127 12.939 8.03729 13.1183L5.0101 16.1455L2.90918 13.9279C2.19193 13.1708 2.17684 11.9896 2.8745 11.2145L5.31042 8.50788Z" fill="#CBD5E1"/>
</svg>
