<svg width="40" height="41" viewBox="0 0 40 41" fill="none" xmlns="http://www.w3.org/2000/svg">
<g clip-path="url(#clip0_49_115922)">
<path d="M20 0.5C8.95312 0.5 0 9.45312 0 20.5C0 31.5469 8.95312 40.5 20 40.5C31.0469 40.5 40 31.5469 40 20.5C40 9.45312 31.0469 0.5 20 0.5ZM32.4844 32.9766C30.8594 34.6016 28.9766 35.875 26.875 36.7578C24.7031 37.6797 22.3906 38.1406 20 38.1406C17.6172 38.1406 15.3047 37.6719 13.125 36.7578C11.0234 35.8672 9.13281 34.5938 7.51562 32.9766C5.89062 31.3516 4.61719 29.4688 3.73438 27.3672C2.8125 25.1953 2.34375 22.8828 2.34375 20.5C2.34375 18.1172 2.8125 15.8047 3.72656 13.625C4.61719 11.5234 5.89062 9.63281 7.50781 8.01562C9.14062 6.39062 11.0234 5.11719 13.125 4.22656C15.3047 3.3125 17.6172 2.84375 20 2.84375C22.3828 2.84375 24.6953 3.3125 26.875 4.22656C28.9766 5.11719 30.8672 6.39063 32.4844 8.00781C34.1094 9.63281 35.3828 11.5156 36.2656 13.6172C37.1875 15.7891 37.6484 18.1016 37.6484 20.4922C37.6484 22.875 37.1797 25.1875 36.2656 27.3672C35.375 29.4688 34.1016 31.3594 32.4844 32.9766Z" fill="#E0EEF9"/>
<path d="M26.1406 10.5H13.875C11.7422 10.5 10.0078 12.2344 10.0078 14.3672V18.4531V26.6406C10.0078 28.7734 11.7422 30.5078 13.875 30.5078H26.1406C28.2734 30.5078 30.0078 28.7734 30.0078 26.6406V18.4453V14.3594C30 12.2344 28.2656 10.5 26.1406 10.5ZM27.25 12.8047H27.6953V13.2422V16.1953L24.3125 16.2031L24.3047 12.8125L27.25 12.8047ZM17.1484 18.4453C17.7891 17.5625 18.8281 16.9766 20 16.9766C21.1719 16.9766 22.2109 17.5547 22.8516 18.4453C23.2734 19.0234 23.5156 19.7344 23.5156 20.5C23.5156 22.4375 21.9375 24.0234 19.9922 24.0234C18.0469 24.0234 16.4844 22.4375 16.4844 20.5C16.4844 19.7344 16.7344 19.0234 17.1484 18.4453ZM28.0547 26.6328C28.0547 27.6875 27.1953 28.5469 26.1406 28.5469H13.875C12.8203 28.5469 11.9609 27.6875 11.9609 26.6328V18.4453H14.9453C14.6875 19.0781 14.5391 19.7734 14.5391 20.5C14.5391 23.5156 16.9922 25.9688 20.0078 25.9688C23.0234 25.9688 25.4766 23.5156 25.4766 20.5C25.4766 19.7734 25.3281 19.0781 25.0703 18.4453H28.0547V26.6328Z" fill="#E0EEF9"/>
</g>
<defs>
<clipPath id="clip0_49_115922">
<rect width="40" height="40" fill="white" transform="translate(0 0.5)"/>
</clipPath>
</defs>
</svg>
