<svg width="16" height="21" viewBox="0 0 16 21" fill="none" xmlns="http://www.w3.org/2000/svg">
<path d="M8 0.5C3.83203 0.5 0.5 3.83203 0.5 8C0.5 9.44141 0.929687 10.5547 1.67578 11.6836L7.21094 20.082C7.37891 20.3359 7.66797 20.5 8 20.5C8.33203 20.5 8.625 20.332 8.78906 20.082L14.3242 11.6836C15.0703 10.5547 15.5 9.44141 15.5 8C15.5 3.83203 12.168 0.5 8 0.5ZM8 12.1641C5.69922 12.1641 3.83203 10.2969 3.83203 7.99219C3.83203 5.6875 5.69922 3.82031 8 3.82031C10.3008 3.82031 12.168 5.6875 12.168 7.99219C12.168 10.2969 10.3008 12.1641 8 12.1641ZM8 5.5C6.61719 5.5 5.5 6.61719 5.5 8C5.5 9.38281 6.61719 10.5 8 10.5C9.38281 10.5 10.5 9.38281 10.5 8C10.5 6.61719 9.38281 5.5 8 5.5Z" fill="#E0EEF9"/>
</svg>
