<svg width="242" height="78" viewBox="0 0 242 78" fill="none" xmlns="http://www.w3.org/2000/svg">
<g clip-path="url(#clip0_49_115842)">
<path d="M33.0299 50.76C31.0309 52.0046 29.1013 53.1884 27.1976 54.4112C26.9505 54.5716 26.7293 54.9316 26.725 55.2047C26.6903 58.2575 26.4648 61.3146 28.0085 64.2112C30.8748 69.5925 37.2925 72.4632 43.7492 71.1493C49.8634 69.9048 54.4078 64.7923 54.4382 59.038C54.4729 52.6333 54.4295 46.233 54.4512 39.8283C54.4599 36.7452 56.3982 34.2735 59.4596 33.3152C62.482 32.3655 65.8166 33.1981 67.7723 35.5006C69.6195 37.6731 69.9318 40.0841 68.6179 42.5645C67.3603 44.9364 65.1965 46.2026 62.2869 46.3587C61.1725 46.4194 60.0494 46.3674 58.7138 46.3674C58.7138 48.2146 58.6834 49.9188 58.7528 51.6143C58.7615 51.8224 59.2601 52.1563 59.568 52.1954C68.1018 53.3488 75.8378 47.265 75.7641 39.4857C75.7034 33.2848 70.3957 27.8948 63.6572 27.188C56.7234 26.4638 50.1583 30.4662 48.5018 36.5197C48.1636 37.7642 48.0769 39.0868 48.0639 40.3746C48.0205 46.4541 48.0812 52.5336 48.0335 58.6087C47.9945 63.6128 43.1031 66.839 38.0384 65.2693C35.1721 64.3803 33.1947 61.8566 33.147 58.9513C33.108 56.3062 33.1253 53.661 33.1123 51.0159C33.1123 50.9292 33.056 50.8424 33.0256 50.7557L33.0299 50.76Z" fill="white"/>
<path d="M50.0111 27.5441C51.9798 26.2562 53.8878 25.029 55.7611 23.7628C56.0039 23.598 56.2164 23.2294 56.2164 22.9606C56.1817 19.9078 56.3421 16.8464 54.7334 13.9845C51.75 8.66818 45.2672 5.94066 38.8409 7.39765C32.757 8.77659 28.3254 13.9888 28.4251 19.7431C28.5335 26.1434 28.72 32.5481 28.8414 38.9485C28.8977 42.0316 27.0201 44.5466 23.9804 45.57C20.9797 46.5847 17.6277 45.8258 15.62 43.571C13.7251 41.4375 13.3608 39.0352 14.6183 36.5288C15.8195 34.1309 17.9573 32.817 20.8626 32.5958C21.977 32.5134 23.1001 32.5351 24.4314 32.5048C24.3923 30.6575 24.3837 28.9533 24.2753 27.2579C24.2623 27.0497 23.7592 26.7288 23.447 26.6941C14.8872 25.7315 7.29001 31.9844 7.53718 39.7594C7.73665 45.9559 13.1613 51.2289 19.913 51.7839C26.8597 52.352 33.3338 48.2065 34.8558 42.1183C35.168 40.8695 35.2244 39.5426 35.207 38.2547C35.116 32.1752 34.9209 26.1001 34.8341 20.0206C34.7647 15.0165 39.5824 11.6819 44.6775 13.1389C47.5611 13.9628 49.5949 16.4432 49.7076 19.3441C49.8073 21.9849 49.8464 24.6301 49.9201 27.2752C49.9201 27.3619 49.9808 27.4487 50.0111 27.5354V27.5441Z" fill="#4690E5"/>
</g>
<path d="M87.8963 38.2031V18.6189H96.3735C98.1268 18.6189 99.6375 18.908 100.906 19.4862C102.174 20.0458 103.153 20.8571 103.843 21.9203C104.534 22.9834 104.879 24.2517 104.879 25.7252C104.879 27.18 104.534 28.439 103.843 29.5021C103.153 30.5653 102.174 31.386 100.906 31.9642C99.6375 32.5237 98.1268 32.8035 96.3735 32.8035H90.4143L92.4287 30.7611V38.2031H87.8963ZM92.4287 31.2647L90.4143 29.1105H96.1217C97.5206 29.1105 98.5651 28.812 99.2552 28.2152C99.9453 27.6183 100.29 26.7883 100.29 25.7252C100.29 24.6434 99.9453 23.8041 99.2552 23.2072C98.5651 22.6104 97.5206 22.3119 96.1217 22.3119H90.4143L92.4287 20.1577V31.2647ZM117.229 22.9274C118.422 22.9274 119.485 23.1699 120.418 23.6549C121.369 24.1211 122.115 24.8486 122.656 25.8371C123.197 26.807 123.467 28.0566 123.467 29.5861V38.2031H119.103V30.2575C119.103 29.0452 118.833 28.1499 118.292 27.5717C117.769 26.9935 117.023 26.7044 116.053 26.7044C115.363 26.7044 114.739 26.8536 114.179 27.152C113.638 27.4318 113.209 27.8701 112.892 28.467C112.594 29.0638 112.444 29.8285 112.444 30.7611V38.2031H108.08V17.4439H112.444V27.3199L111.465 26.0609C112.006 25.0537 112.78 24.2797 113.787 23.7388C114.794 23.1979 115.942 22.9274 117.229 22.9274ZM136.656 38.2031V35.2655L136.376 34.622V29.3623C136.376 28.4297 136.087 27.7023 135.509 27.18C134.95 26.6578 134.082 26.3966 132.907 26.3966C132.105 26.3966 131.313 26.5272 130.529 26.7883C129.764 27.0308 129.112 27.3665 128.571 27.7955L127.004 24.746C127.825 24.1678 128.813 23.7201 129.97 23.4031C131.126 23.086 132.301 22.9274 133.495 22.9274C135.789 22.9274 137.57 23.4683 138.838 24.5501C140.107 25.6319 140.741 27.3199 140.741 29.6141V38.2031H136.656ZM132.068 38.4269C130.893 38.4269 129.886 38.2311 129.046 37.8394C128.207 37.4291 127.564 36.8789 127.116 36.1887C126.668 35.4986 126.444 34.7246 126.444 33.8666C126.444 32.9713 126.659 32.188 127.088 31.5165C127.536 30.8451 128.235 30.3228 129.186 29.9498C130.137 29.5581 131.378 29.3623 132.907 29.3623H136.908V31.9082H133.383C132.357 31.9082 131.648 32.0761 131.257 32.4118C130.884 32.7475 130.697 33.1672 130.697 33.6708C130.697 34.2303 130.912 34.678 131.34 35.0137C131.788 35.3308 132.394 35.4893 133.159 35.4893C133.886 35.4893 134.539 35.3214 135.117 34.9857C135.696 34.6313 136.115 34.1184 136.376 33.447L137.048 35.4613C136.731 36.4312 136.153 37.168 135.313 37.6716C134.474 38.1751 133.392 38.4269 132.068 38.4269ZM144.691 38.2031V23.1513H148.86V27.4038L148.272 26.1728C148.72 25.1097 149.438 24.3077 150.426 23.7668C151.415 23.2072 152.618 22.9274 154.035 22.9274V26.9562C153.849 26.9375 153.681 26.9282 153.532 26.9282C153.383 26.9096 153.224 26.9002 153.056 26.9002C151.863 26.9002 150.893 27.2453 150.147 27.9354C149.419 28.6069 149.055 29.6607 149.055 31.0969V38.2031H144.691ZM175.934 22.9274C177.128 22.9274 178.182 23.1699 179.096 23.6549C180.028 24.1211 180.756 24.8486 181.278 25.8371C181.819 26.807 182.089 28.0566 182.089 29.5861V38.2031H177.725V30.2575C177.725 29.0452 177.473 28.1499 176.97 27.5717C176.466 26.9935 175.757 26.7044 174.843 26.7044C174.209 26.7044 173.64 26.8536 173.137 27.152C172.633 27.4318 172.241 27.8608 171.962 28.439C171.682 29.0172 171.542 29.7539 171.542 30.6492V38.2031H167.177V30.2575C167.177 29.0452 166.926 28.1499 166.422 27.5717C165.937 26.9935 165.238 26.7044 164.324 26.7044C163.69 26.7044 163.121 26.8536 162.617 27.152C162.113 27.4318 161.722 27.8608 161.442 28.439C161.162 29.0172 161.022 29.7539 161.022 30.6492V38.2031H156.658V23.1513H160.827V27.2639L160.043 26.0609C160.565 25.0351 161.302 24.261 162.253 23.7388C163.223 23.1979 164.324 22.9274 165.555 22.9274C166.935 22.9274 168.138 23.2818 169.164 23.9906C170.208 24.6807 170.898 25.7438 171.234 27.18L169.695 26.7604C170.199 25.5853 171.001 24.6527 172.101 23.9626C173.221 23.2725 174.498 22.9274 175.934 22.9274ZM195.234 38.2031V35.2655L194.954 34.622V29.3623C194.954 28.4297 194.665 27.7023 194.087 27.18C193.527 26.6578 192.66 26.3966 191.485 26.3966C190.683 26.3966 189.89 26.5272 189.107 26.7883C188.342 27.0308 187.689 27.3665 187.148 27.7955L185.582 24.746C186.402 24.1678 187.391 23.7201 188.547 23.4031C189.704 23.086 190.879 22.9274 192.073 22.9274C194.367 22.9274 196.148 23.4683 197.416 24.5501C198.685 25.6319 199.319 27.3199 199.319 29.6141V38.2031H195.234ZM190.646 38.4269C189.471 38.4269 188.463 38.2311 187.624 37.8394C186.785 37.4291 186.141 36.8789 185.694 36.1887C185.246 35.4986 185.022 34.7246 185.022 33.8666C185.022 32.9713 185.237 32.188 185.666 31.5165C186.113 30.8451 186.813 30.3228 187.764 29.9498C188.715 29.5581 189.956 29.3623 191.485 29.3623H195.486V31.9082H191.961C190.935 31.9082 190.226 32.0761 189.834 32.4118C189.461 32.7475 189.275 33.1672 189.275 33.6708C189.275 34.2303 189.489 34.678 189.918 35.0137C190.366 35.3308 190.972 35.4893 191.737 35.4893C192.464 35.4893 193.117 35.3214 193.695 34.9857C194.273 34.6313 194.693 34.1184 194.954 33.447L195.626 35.4613C195.309 36.4312 194.73 37.168 193.891 37.6716C193.052 38.1751 191.97 38.4269 190.646 38.4269ZM210.652 38.4269C209.029 38.4269 207.584 38.1005 206.316 37.4477C205.047 36.7763 204.049 35.853 203.322 34.678C202.613 33.5029 202.259 32.1693 202.259 30.6772C202.259 29.1664 202.613 27.8328 203.322 26.6764C204.049 25.5014 205.047 24.5874 206.316 23.9346C207.584 23.2632 209.029 22.9274 210.652 22.9274C212.238 22.9274 213.618 23.2632 214.793 23.9346C215.968 24.5874 216.835 25.5293 217.395 26.7604L214.009 28.5789C213.618 27.8701 213.123 27.3479 212.527 27.0122C211.948 26.6764 211.314 26.5086 210.624 26.5086C209.878 26.5086 209.207 26.6764 208.61 27.0122C208.013 27.3479 207.537 27.8235 207.183 28.439C206.847 29.0545 206.679 29.8006 206.679 30.6772C206.679 31.5538 206.847 32.2999 207.183 32.9154C207.537 33.5309 208.013 34.0065 208.61 34.3422C209.207 34.678 209.878 34.8458 210.624 34.8458C211.314 34.8458 211.948 34.6873 212.527 34.3702C213.123 34.0345 213.618 33.5029 214.009 32.7755L217.395 34.622C216.835 35.8344 215.968 36.7763 214.793 37.4477C213.618 38.1005 212.238 38.4269 210.652 38.4269ZM221.592 43.8546C220.808 43.8546 220.034 43.7333 219.269 43.4909C218.505 43.2484 217.88 42.9127 217.395 42.4837L218.99 39.3782C219.325 39.6766 219.708 39.9097 220.137 40.0776C220.584 40.2455 221.023 40.3294 221.452 40.3294C222.067 40.3294 222.552 40.1802 222.906 39.8818C223.28 39.602 223.615 39.1264 223.914 38.4549L224.697 36.6084L225.033 36.1328L230.432 23.1513H234.629L227.831 39.1264C227.346 40.3387 226.786 41.29 226.152 41.9801C225.536 42.6702 224.846 43.1551 224.082 43.4349C223.335 43.7147 222.505 43.8546 221.592 43.8546ZM224.165 38.7907L217.451 23.1513H221.955L227.159 35.7411L224.165 38.7907ZM85.3224 72.2031L94.0514 52.6189H98.5278L107.285 72.2031H102.529L95.3663 54.9131H97.1569L89.9667 72.2031H85.3224ZM89.6869 68.0065L90.8899 64.5653H100.962L102.193 68.0065H89.6869ZM115.086 72.4269C113.837 72.4269 112.718 72.1845 111.729 71.6995C110.759 71.2146 110.004 70.4778 109.463 69.4893C108.922 68.4821 108.652 67.2045 108.652 65.6564V57.1513H113.016V65.0129C113.016 66.2626 113.277 67.1858 113.8 67.7827C114.34 68.3609 115.096 68.65 116.066 68.65C116.737 68.65 117.334 68.5101 117.856 68.2303C118.378 67.9319 118.789 67.4843 119.087 66.8874C119.386 66.2719 119.535 65.5072 119.535 64.5933V57.1513H123.899V72.2031H119.759V68.0625L120.514 69.2655C120.011 70.31 119.264 71.1027 118.276 71.6436C117.306 72.1658 116.243 72.4269 115.086 72.4269ZM134.406 72.4269C132.988 72.4269 131.71 72.1099 130.573 71.4757C129.435 70.8229 128.53 69.9183 127.859 68.7619C127.206 67.6055 126.88 66.2439 126.88 64.6772C126.88 63.0918 127.206 61.7209 127.859 60.5645C128.53 59.4081 129.435 58.5128 130.573 57.8787C131.71 57.2445 132.988 56.9274 134.406 56.9274C135.674 56.9274 136.784 57.2072 137.735 57.7668C138.686 58.3263 139.423 59.175 139.945 60.3127C140.467 61.4505 140.728 62.9053 140.728 64.6772C140.728 66.4304 140.477 67.8853 139.973 69.0417C139.469 70.1794 138.742 71.0281 137.791 71.5876C136.858 72.1472 135.73 72.4269 134.406 72.4269ZM135.161 68.8458C135.87 68.8458 136.513 68.678 137.091 68.3422C137.67 68.0065 138.127 67.5309 138.462 66.9154C138.817 66.2812 138.994 65.5352 138.994 64.6772C138.994 63.8006 138.817 63.0545 138.462 62.439C138.127 61.8235 137.67 61.3479 137.091 61.0122C136.513 60.6764 135.87 60.5086 135.161 60.5086C134.434 60.5086 133.781 60.6764 133.203 61.0122C132.624 61.3479 132.158 61.8235 131.804 62.439C131.468 63.0545 131.3 63.8006 131.3 64.6772C131.3 65.5352 131.468 66.2812 131.804 66.9154C132.158 67.5309 132.624 68.0065 133.203 68.3422C133.781 68.678 134.434 68.8458 135.161 68.8458ZM139.106 72.2031V69.1256L139.19 64.6492L138.91 60.2008V51.4439H143.274V72.2031H139.106ZM147.314 72.2031V57.1513H151.678V72.2031H147.314ZM149.496 55.053C148.694 55.053 148.041 54.8198 147.538 54.3535C147.034 53.8872 146.782 53.309 146.782 52.6189C146.782 51.9288 147.034 51.3506 147.538 50.8843C148.041 50.418 148.694 50.1849 149.496 50.1849C150.298 50.1849 150.951 50.4087 151.455 50.8563C151.958 51.2853 152.21 51.8449 152.21 52.535C152.21 53.2624 151.958 53.8686 151.455 54.3535C150.97 54.8198 150.317 55.053 149.496 55.053ZM161.884 72.4269C160.112 72.4269 158.732 71.9793 157.743 71.084C156.755 70.1701 156.261 68.8179 156.261 67.0273V53.8219H160.625V66.9713C160.625 67.6055 160.793 68.0998 161.129 68.4541C161.464 68.7899 161.921 68.9577 162.499 68.9577C163.19 68.9577 163.777 68.7712 164.262 68.3982L165.437 71.4757C164.989 71.7928 164.449 72.0353 163.814 72.2031C163.199 72.3523 162.555 72.4269 161.884 72.4269ZM153.938 60.8443V57.487H164.374V60.8443H153.938ZM176.118 72.2031V52.6189H184.595C186.349 52.6189 187.859 52.908 189.128 53.4862C190.396 54.0458 191.375 54.8571 192.065 55.9203C192.755 56.9834 193.1 58.2517 193.1 59.7252C193.1 61.18 192.755 62.439 192.065 63.5021C191.375 64.5653 190.396 65.386 189.128 65.9642C187.859 66.5237 186.349 66.8035 184.595 66.8035H178.636L180.651 64.7611V72.2031H176.118ZM180.651 65.2647L178.636 63.1105H184.344C185.742 63.1105 186.787 62.812 187.477 62.2152C188.167 61.6183 188.512 60.7883 188.512 59.7252C188.512 58.6434 188.167 57.8041 187.477 57.2072C186.787 56.6104 185.742 56.3119 184.344 56.3119H178.636L180.651 54.1577V65.2647ZM196.001 72.2031V57.1513H200.17V61.4038L199.582 60.1728C200.03 59.1097 200.748 58.3077 201.737 57.7668C202.725 57.2072 203.928 56.9274 205.346 56.9274V60.9562C205.159 60.9375 204.991 60.9282 204.842 60.9282C204.693 60.9096 204.534 60.9002 204.366 60.9002C203.173 60.9002 202.203 61.2453 201.457 61.9354C200.729 62.6069 200.366 63.6607 200.366 65.0969V72.2031H196.001ZM214.994 72.4269C213.39 72.4269 211.963 72.0912 210.713 71.4198C209.482 70.7483 208.503 69.8344 207.776 68.678C207.067 67.5029 206.712 66.1693 206.712 64.6772C206.712 63.1664 207.067 61.8328 207.776 60.6764C208.503 59.5014 209.482 58.5874 210.713 57.9346C211.963 57.2632 213.39 56.9274 214.994 56.9274C216.579 56.9274 217.997 57.2632 219.246 57.9346C220.496 58.5874 221.475 59.492 222.184 60.6484C222.893 61.8048 223.247 63.1478 223.247 64.6772C223.247 66.1693 222.893 67.5029 222.184 68.678C221.475 69.8344 220.496 70.7483 219.246 71.4198C217.997 72.0912 216.579 72.4269 214.994 72.4269ZM214.994 68.8458C215.721 68.8458 216.374 68.678 216.952 68.3422C217.53 68.0065 217.987 67.5309 218.323 66.9154C218.659 66.2812 218.827 65.5352 218.827 64.6772C218.827 63.8006 218.659 63.0545 218.323 62.439C217.987 61.8235 217.53 61.3479 216.952 61.0122C216.374 60.6764 215.721 60.5086 214.994 60.5086C214.266 60.5086 213.613 60.6764 213.035 61.0122C212.457 61.3479 211.991 61.8235 211.636 62.439C211.301 63.0545 211.133 63.8006 211.133 64.6772C211.133 65.5352 211.301 66.2812 211.636 66.9154C211.991 67.5309 212.457 68.0065 213.035 68.3422C213.613 68.678 214.266 68.8458 214.994 68.8458Z" fill="white"/>
<defs>
<clipPath id="clip0_49_115842">
<rect width="75.7593" height="76.6569" fill="white" transform="translate(0 0.944336)"/>
</clipPath>
</defs>
</svg>
