<svg width="144" height="46" viewBox="0 0 144 46" fill="none" xmlns="http://www.w3.org/2000/svg">
<g clip-path="url(#clip0_5_69000)">
<path d="M19.654 29.8244C18.4645 30.5649 17.3163 31.2693 16.1836 31.9969C16.0365 32.0924 15.9049 32.3066 15.9023 32.4691C15.8817 34.2856 15.7475 36.1047 16.6661 37.8284C18.3716 41.0305 22.1904 42.7386 26.0324 41.9568C29.6706 41.2162 32.3747 38.1741 32.3928 34.7501C32.4134 30.939 32.3876 27.1306 32.4005 23.3195C32.4057 21.4849 33.5591 20.0142 35.3807 19.4439C37.1792 18.8789 39.1634 19.3743 40.3271 20.7444C41.4263 22.0371 41.6121 23.4717 40.8303 24.9477C40.082 26.3591 38.7944 27.1125 37.0631 27.2054C36.3999 27.2415 35.7317 27.2106 34.9369 27.2106C34.9369 28.3097 34.9189 29.3238 34.9602 30.3327C34.9653 30.4565 35.262 30.6552 35.4452 30.6784C40.5232 31.3648 45.1264 27.7447 45.0825 23.1157C45.0464 19.4259 41.8882 16.2186 37.8784 15.798C33.7526 15.3671 29.8461 17.7487 28.8604 21.3508C28.6591 22.0913 28.6075 22.8783 28.5998 23.6446C28.574 27.2622 28.6101 30.8797 28.5817 34.4946C28.5585 37.4723 25.648 39.392 22.6342 38.4579C20.9287 37.929 19.7521 36.4273 19.7237 34.6985C19.7005 33.1245 19.7108 31.5506 19.703 29.9766C19.703 29.925 19.6695 29.8734 19.6514 29.8218L19.654 29.8244Z" fill="#5BC6B8"/>
<path d="M29.7587 16.0097C30.9301 15.2433 32.0654 14.5131 33.1801 13.7597C33.3246 13.6616 33.451 13.4423 33.451 13.2823C33.4304 11.4658 33.5258 9.64417 32.5686 7.94119C30.7933 4.77778 26.9358 3.15479 23.1119 4.02176C19.4918 4.84229 16.8547 7.94377 16.9141 11.3678C16.9786 15.1763 17.0895 18.9873 17.1618 22.7958C17.1953 24.6304 16.0781 26.1269 14.2693 26.7359C12.4838 27.3396 10.4892 26.8881 9.29456 25.5464C8.16698 24.2769 7.95024 22.8474 8.69851 21.356C9.41325 19.9291 10.6853 19.1473 12.4141 19.0157C13.0772 18.9667 13.7455 18.9796 14.5377 18.9615C14.5144 17.8623 14.5093 16.8483 14.4448 15.8394C14.437 15.7155 14.1377 15.5246 13.9519 15.504C8.85849 14.9311 4.33786 18.6519 4.48494 23.2783C4.60363 26.9655 7.83154 30.1031 11.849 30.4334C15.9826 30.7714 19.8349 28.3047 20.7406 24.682C20.9264 23.9388 20.9599 23.1493 20.9496 22.3829C20.8954 18.7654 20.7793 15.1505 20.7277 11.5329C20.6864 8.55529 23.5531 6.57107 26.5849 7.43804C28.3008 7.92829 29.5109 9.4042 29.578 11.1304C29.6374 12.7018 29.6606 14.2757 29.7045 15.8497C29.7045 15.9013 29.7406 15.9529 29.7587 16.0045V16.0097Z" fill="#4690E5"/>
</g>
<path d="M52.3019 22.4754V10.822H57.3462C58.3894 10.822 59.2884 10.994 60.0431 11.3381C60.7978 11.671 61.3805 12.1538 61.7911 12.7864C62.2017 13.419 62.4071 14.1737 62.4071 15.0505C62.4071 15.9162 62.2017 16.6653 61.7911 17.2979C61.3805 17.9306 60.7978 18.4189 60.0431 18.7629C59.2884 19.0959 58.3894 19.2624 57.3462 19.2624H53.8002L54.9988 18.0471V22.4754H52.3019ZM54.9988 18.3468L53.8002 17.0649H57.1963C58.0287 17.0649 58.6502 16.8873 59.0609 16.5322C59.4715 16.177 59.6768 15.6831 59.6768 15.0505C59.6768 14.4068 59.4715 13.9074 59.0609 13.5522C58.6502 13.1971 58.0287 13.0195 57.1963 13.0195H53.8002L54.9988 11.7376V18.3468ZM69.7557 13.3857C70.466 13.3857 71.0986 13.53 71.6536 13.8186C72.2196 14.096 72.6635 14.5289 72.9854 15.1171C73.3072 15.6942 73.4682 16.4378 73.4682 17.3479V22.4754H70.8711V17.7474C70.8711 17.026 70.7102 16.4933 70.3883 16.1493C70.0776 15.8052 69.6336 15.6332 69.0565 15.6332C68.6459 15.6332 68.2741 15.722 67.9411 15.8995C67.6193 16.066 67.364 16.3268 67.1753 16.682C66.9978 17.0371 66.909 17.4922 66.909 18.0471V22.4754H64.3119V10.1228H66.909V15.9994L66.3263 15.2503C66.6482 14.651 67.1087 14.1904 67.7081 13.8685C68.3074 13.5467 68.9899 13.3857 69.7557 13.3857ZM81.316 22.4754V20.7274L81.1495 20.3445V17.2147C81.1495 16.6598 80.9775 16.2269 80.6334 15.9162C80.3005 15.6054 79.7844 15.4501 79.0852 15.4501C78.608 15.4501 78.1363 15.5277 77.6701 15.6831C77.2151 15.8274 76.8267 16.0272 76.5048 16.2824L75.5725 14.4678C76.0609 14.1238 76.6491 13.8574 77.3372 13.6687C78.0253 13.4801 78.7245 13.3857 79.4348 13.3857C80.7999 13.3857 81.8598 13.7076 82.6145 14.3513C83.3692 14.995 83.7466 15.9994 83.7466 17.3645V22.4754H81.316ZM78.5858 22.6086C77.8866 22.6086 77.2873 22.492 76.7878 22.259C76.2884 22.0148 75.9055 21.6874 75.6391 21.2767C75.3728 20.8661 75.2396 20.4055 75.2396 19.895C75.2396 19.3623 75.3672 18.8961 75.6225 18.4966C75.8888 18.097 76.305 17.7863 76.8711 17.5643C77.4371 17.3312 78.1751 17.2147 79.0852 17.2147H81.4658V18.7296H79.3682C78.7578 18.7296 78.3361 18.8295 78.103 19.0293C77.881 19.2291 77.77 19.4788 77.77 19.7785C77.77 20.1114 77.8977 20.3778 78.1529 20.5775C78.4193 20.7662 78.78 20.8606 79.235 20.8606C79.6679 20.8606 80.0563 20.7607 80.4004 20.5609C80.7444 20.35 80.9941 20.0448 81.1495 19.6453L81.5491 20.8439C81.3604 21.421 81.0163 21.8594 80.5169 22.1591C80.0175 22.4587 79.3738 22.6086 78.5858 22.6086ZM86.097 22.4754V13.5189H88.5775V16.0494L88.2279 15.3169C88.4943 14.6843 88.9216 14.207 89.5098 13.8852C90.098 13.5522 90.8139 13.3857 91.6573 13.3857V15.783C91.5464 15.7719 91.4465 15.7664 91.3577 15.7664C91.2689 15.7553 91.1746 15.7497 91.0747 15.7497C90.3644 15.7497 89.7872 15.955 89.3433 16.3657C88.9105 16.7652 88.694 17.3923 88.694 18.2469V22.4754H86.097ZM104.688 13.3857C105.398 13.3857 106.025 13.53 106.569 13.8186C107.124 14.096 107.557 14.5289 107.868 15.1171C108.19 15.6942 108.351 16.4378 108.351 17.3479V22.4754H105.754V17.7474C105.754 17.026 105.604 16.4933 105.304 16.1493C105.004 15.8052 104.583 15.6332 104.039 15.6332C103.661 15.6332 103.323 15.722 103.023 15.8995C102.724 16.066 102.491 16.3213 102.324 16.6653C102.158 17.0094 102.074 17.4478 102.074 17.9805V22.4754H99.4773V17.7474C99.4773 17.026 99.3275 16.4933 99.0279 16.1493C98.7393 15.8052 98.3231 15.6332 97.7793 15.6332C97.4019 15.6332 97.0634 15.722 96.7638 15.8995C96.4641 16.066 96.231 16.3213 96.0646 16.6653C95.8981 17.0094 95.8148 17.4478 95.8148 17.9805V22.4754H93.2178V13.5189H95.6983V15.9661L95.2322 15.2503C95.5429 14.6399 95.9813 14.1793 96.5473 13.8685C97.1245 13.5467 97.7793 13.3857 98.5118 13.3857C99.3331 13.3857 100.049 13.5966 100.659 14.0183C101.281 14.429 101.691 15.0616 101.891 15.9162L100.976 15.6665C101.275 14.9673 101.753 14.4123 102.407 14.0017C103.073 13.5911 103.833 13.3857 104.688 13.3857ZM116.172 22.4754V20.7274L116.006 20.3445V17.2147C116.006 16.6598 115.834 16.2269 115.49 15.9162C115.157 15.6054 114.641 15.4501 113.941 15.4501C113.464 15.4501 112.992 15.5277 112.526 15.6831C112.071 15.8274 111.683 16.0272 111.361 16.2824L110.429 14.4678C110.917 14.1238 111.505 13.8574 112.193 13.6687C112.881 13.4801 113.581 13.3857 114.291 13.3857C115.656 13.3857 116.716 13.7076 117.471 14.3513C118.225 14.995 118.603 15.9994 118.603 17.3645V22.4754H116.172ZM113.442 22.6086C112.743 22.6086 112.143 22.492 111.644 22.259C111.145 22.0148 110.762 21.6874 110.495 21.2767C110.229 20.8661 110.096 20.4055 110.096 19.895C110.096 19.3623 110.223 18.8961 110.479 18.4966C110.745 18.097 111.161 17.7863 111.727 17.5643C112.293 17.3312 113.031 17.2147 113.941 17.2147H116.322V18.7296H114.224C113.614 18.7296 113.192 18.8295 112.959 19.0293C112.737 19.2291 112.626 19.4788 112.626 19.7785C112.626 20.1114 112.754 20.3778 113.009 20.5775C113.275 20.7662 113.636 20.8606 114.091 20.8606C114.524 20.8606 114.912 20.7607 115.257 20.5609C115.601 20.35 115.85 20.0448 116.006 19.6453L116.405 20.8439C116.217 21.421 115.872 21.8594 115.373 22.1591C114.874 22.4587 114.23 22.6086 113.442 22.6086ZM125.347 22.6086C124.381 22.6086 123.521 22.4143 122.766 22.0259C122.011 21.6263 121.418 21.077 120.985 20.3778C120.563 19.6786 120.352 18.885 120.352 17.9971C120.352 17.0982 120.563 16.3046 120.985 15.6165C121.418 14.9173 122.011 14.3735 122.766 13.9851C123.521 13.5855 124.381 13.3857 125.347 13.3857C126.29 13.3857 127.111 13.5855 127.81 13.9851C128.51 14.3735 129.026 14.934 129.359 15.6665L127.344 16.7486C127.111 16.3268 126.817 16.0161 126.462 15.8163C126.118 15.6165 125.741 15.5166 125.33 15.5166C124.886 15.5166 124.486 15.6165 124.131 15.8163C123.776 16.0161 123.493 16.2991 123.282 16.6653C123.082 17.0316 122.983 17.4755 122.983 17.9971C122.983 18.5188 123.082 18.9627 123.282 19.329C123.493 19.6952 123.776 19.9782 124.131 20.178C124.486 20.3778 124.886 20.4777 125.33 20.4777C125.741 20.4777 126.118 20.3833 126.462 20.1946C126.817 19.9949 127.111 19.6786 127.344 19.2457L129.359 20.3445C129.026 21.0659 128.51 21.6263 127.81 22.0259C127.111 22.4143 126.29 22.6086 125.347 22.6086ZM131.856 25.8382C131.39 25.8382 130.929 25.7661 130.474 25.6218C130.019 25.4775 129.647 25.2777 129.359 25.0225L130.308 23.1746C130.507 23.3522 130.735 23.4909 130.99 23.5908C131.257 23.6907 131.517 23.7406 131.773 23.7406C132.139 23.7406 132.428 23.6518 132.638 23.4742C132.86 23.3078 133.06 23.0248 133.238 22.6252L133.704 21.5265L133.904 21.2435L137.117 13.5189H139.614L135.568 23.0248C135.28 23.7462 134.947 24.3122 134.57 24.7228C134.203 25.1335 133.793 25.422 133.338 25.5885C132.894 25.755 132.4 25.8382 131.856 25.8382ZM133.388 22.825L129.392 13.5189H132.072L135.169 21.0104L133.388 22.825ZM50.7703 42.4754L55.9644 30.822H58.628L63.8388 42.4754H61.0087L56.7468 32.1871H57.8123L53.5338 42.4754H50.7703ZM53.3674 39.9782L54.0832 37.9306H60.0764L60.8089 39.9782H53.3674ZM68.4811 42.6086C67.7375 42.6086 67.0716 42.4643 66.4834 42.1757C65.9063 41.8872 65.4568 41.4488 65.1349 40.8606C64.8131 40.2612 64.6522 39.501 64.6522 38.5798V33.5189H67.2492V38.1969C67.2492 38.9405 67.4046 39.4899 67.7153 39.845C68.0372 40.1891 68.4867 40.3611 69.0638 40.3611C69.4634 40.3611 69.8185 40.2779 70.1293 40.1114C70.44 39.9338 70.6842 39.6675 70.8618 39.3123C71.0393 38.9461 71.1281 38.491 71.1281 37.9472V33.5189H73.7252V42.4754H71.2613V40.0115L71.7108 40.7274C71.4111 41.3489 70.9672 41.8206 70.379 42.1424C69.8019 42.4532 69.1692 42.6086 68.4811 42.6086ZM79.9768 42.6086C79.1333 42.6086 78.373 42.4199 77.696 42.0425C77.019 41.6541 76.4807 41.1158 76.0812 40.4277C75.6928 39.7396 75.4985 38.9294 75.4985 37.9971C75.4985 37.0538 75.6928 36.238 76.0812 35.5499C76.4807 34.8618 77.019 34.3291 77.696 33.9518C78.373 33.5744 79.1333 33.3857 79.9768 33.3857C80.7315 33.3857 81.3918 33.5522 81.9578 33.8852C82.5239 34.2181 82.9623 34.7231 83.273 35.4001C83.5838 36.0771 83.7391 36.9428 83.7391 37.9971C83.7391 39.0404 83.5893 39.9061 83.2897 40.5942C82.99 41.2712 82.5572 41.7762 81.9911 42.1091C81.4362 42.4421 80.7648 42.6086 79.9768 42.6086ZM80.4263 40.4777C80.848 40.4777 81.2309 40.3778 81.5749 40.178C81.919 39.9782 82.1909 39.6952 82.3907 39.329C82.6016 38.9516 82.707 38.5077 82.707 37.9971C82.707 37.4755 82.6016 37.0316 82.3907 36.6653C82.1909 36.2991 81.919 36.0161 81.5749 35.8163C81.2309 35.6165 80.848 35.5166 80.4263 35.5166C79.9934 35.5166 79.605 35.6165 79.2609 35.8163C78.9169 36.0161 78.6394 36.2991 78.4285 36.6653C78.2288 37.0316 78.1289 37.4755 78.1289 37.9971C78.1289 38.5077 78.2288 38.9516 78.4285 39.329C78.6394 39.6952 78.9169 39.9782 79.2609 40.178C79.605 40.3778 79.9934 40.4777 80.4263 40.4777ZM82.7736 42.4754V40.6441L82.8235 37.9805L82.657 35.3335V30.1228H85.2541V42.4754H82.7736ZM87.6577 42.4754V33.5189H90.2548V42.4754H87.6577ZM88.9563 32.2703C88.479 32.2703 88.0906 32.1316 87.7909 31.8541C87.4913 31.5767 87.3414 31.2326 87.3414 30.822C87.3414 30.4113 87.4913 30.0673 87.7909 29.7898C88.0906 29.5124 88.479 29.3736 88.9563 29.3736C89.4335 29.3736 89.8219 29.5068 90.1216 29.7732C90.4212 30.0284 90.5711 30.3614 90.5711 30.772C90.5711 31.2049 90.4212 31.5656 90.1216 31.8541C89.833 32.1316 89.4446 32.2703 88.9563 32.2703ZM96.3275 42.6086C95.2732 42.6086 94.4519 42.3422 93.8637 41.8095C93.2755 41.2656 92.9814 40.461 92.9814 39.3956V31.5378H95.5784V39.3623C95.5784 39.7396 95.6783 40.0337 95.8781 40.2446C96.0778 40.4444 96.3497 40.5442 96.6938 40.5442C97.1044 40.5442 97.454 40.4333 97.7426 40.2113L98.4418 42.0425C98.1754 42.2312 97.8536 42.3755 97.4762 42.4754C97.11 42.5642 96.7271 42.6086 96.3275 42.6086ZM91.5996 35.7164V33.7187H97.8092V35.7164H91.5996ZM104.797 42.4754V30.822H109.842C110.885 30.822 111.784 30.994 112.539 31.3381C113.293 31.671 113.876 32.1538 114.287 32.7864C114.697 33.419 114.903 34.1737 114.903 35.0505C114.903 35.9162 114.697 36.6653 114.287 37.2979C113.876 37.9306 113.293 38.4189 112.539 38.7629C111.784 39.0959 110.885 39.2624 109.842 39.2624H106.296L107.494 38.0471V42.4754H104.797ZM107.494 38.3468L106.296 37.0649H109.692C110.524 37.0649 111.146 36.8873 111.556 36.5322C111.967 36.177 112.172 35.6831 112.172 35.0505C112.172 34.4068 111.967 33.9074 111.556 33.5522C111.146 33.1971 110.524 33.0195 109.692 33.0195H106.296L107.494 31.7376V38.3468ZM116.629 42.4754V33.5189H119.109V36.0494L118.76 35.3169C119.026 34.6843 119.453 34.207 120.041 33.8852C120.63 33.5522 121.345 33.3857 122.189 33.3857V35.783C122.078 35.7719 121.978 35.7664 121.889 35.7664C121.801 35.7553 121.706 35.7497 121.606 35.7497C120.896 35.7497 120.319 35.955 119.875 36.3657C119.442 36.7652 119.226 37.3923 119.226 38.2469V42.4754H116.629ZM127.93 42.6086C126.975 42.6086 126.126 42.4088 125.383 42.0092C124.65 41.6097 124.068 41.0659 123.635 40.3778C123.213 39.6786 123.002 38.885 123.002 37.9971C123.002 37.0982 123.213 36.3046 123.635 35.6165C124.068 34.9173 124.65 34.3735 125.383 33.9851C126.126 33.5855 126.975 33.3857 127.93 33.3857C128.873 33.3857 129.717 33.5855 130.46 33.9851C131.204 34.3735 131.787 34.9118 132.208 35.5999C132.63 36.288 132.841 37.0871 132.841 37.9971C132.841 38.885 132.63 39.6786 132.208 40.3778C131.787 41.0659 131.204 41.6097 130.46 42.0092C129.717 42.4088 128.873 42.6086 127.93 42.6086ZM127.93 40.4777C128.363 40.4777 128.751 40.3778 129.095 40.178C129.439 39.9782 129.711 39.6952 129.911 39.329C130.111 38.9516 130.211 38.5077 130.211 37.9971C130.211 37.4755 130.111 37.0316 129.911 36.6653C129.711 36.2991 129.439 36.0161 129.095 35.8163C128.751 35.6165 128.363 35.5166 127.93 35.5166C127.497 35.5166 127.109 35.6165 126.765 35.8163C126.421 36.0161 126.143 36.2991 125.932 36.6653C125.732 37.0316 125.633 37.4755 125.633 37.9971C125.633 38.5077 125.732 38.9516 125.932 39.329C126.143 39.6952 126.421 39.9782 126.765 40.178C127.109 40.3778 127.497 40.4777 127.93 40.4777Z" fill="#F1F8FE"/>
<defs>
<clipPath id="clip0_5_69000">
<rect width="45.0798" height="45.614" fill="white" transform="translate(0 0.181686)"/>
</clipPath>
</defs>
</svg>
