<svg width="134" height="283" viewBox="0 0 134 283" fill="none" xmlns="http://www.w3.org/2000/svg">
<path d="M48.9628 145.896C46.0617 147.678 43.2614 149.373 40.4984 151.124C40.1396 151.354 39.8168 151.872 39.8081 152.267C39.7315 156.681 39.3789 161.099 41.5857 165.301C45.6833 173.106 54.9374 177.312 64.2844 175.469C73.1354 173.722 79.7504 166.37 79.8442 158.05C79.95 148.79 79.9428 139.536 80.0298 130.276C80.0691 125.818 82.8931 122.261 87.3278 120.902C91.706 119.556 96.5201 120.788 99.3277 124.134C101.98 127.292 102.41 130.78 100.489 134.355C98.6502 137.774 95.5107 139.586 91.3024 139.786C89.6905 139.864 88.0671 139.779 86.1361 139.768C86.1201 142.438 86.0614 144.902 86.147 147.354C86.1577 147.655 86.8758 148.142 87.3206 148.201C99.6493 149.943 110.887 141.214 110.848 129.966C110.814 120.999 103.187 113.16 93.45 112.08C83.4311 110.973 73.9041 116.702 71.4566 125.44C70.9567 127.237 70.8198 129.148 70.7898 131.01C70.6744 139.8 70.7094 148.591 70.5876 157.374C70.4878 164.609 63.3876 169.231 56.0783 166.917C51.9417 165.607 49.1047 161.941 49.061 157.74C49.0275 153.915 49.0755 150.091 49.0797 146.266C49.0804 146.141 48.9997 146.015 48.9566 145.889L48.9628 145.896Z" fill="#DFDFDF" fill-opacity="0.12"/>
<path d="M73.7166 112.475C76.5742 110.63 79.3435 108.873 82.063 107.058C82.4155 106.822 82.7259 106.291 82.7282 105.902C82.7046 101.488 82.9631 97.0631 80.662 92.9112C76.3946 85.1987 67.0451 81.1988 57.7409 83.2496C48.9326 85.1905 42.4797 92.6882 42.574 101.009C42.6751 110.264 42.8891 119.526 43.0091 128.781C43.0638 133.239 40.3272 136.859 35.9233 138.312C31.5759 139.753 26.736 138.627 23.8528 135.349C21.1315 132.248 20.6257 128.772 22.4656 125.159C24.2231 121.702 27.3255 119.821 31.5281 119.526C33.1401 119.417 34.7637 119.458 36.6888 119.426C36.6484 116.755 36.6507 114.291 36.5086 111.838C36.4916 111.537 35.7671 111.069 35.316 111.016C22.9481 109.55 11.9094 118.525 12.1992 129.768C12.4338 138.729 20.2314 146.4 29.9884 147.261C40.0275 148.143 49.4241 142.205 51.6776 133.416C52.1398 131.613 52.2329 129.695 52.219 127.833C52.1401 119.042 51.9107 110.257 51.8381 101.466C51.7812 94.23 58.7758 89.4504 66.13 91.6013C70.2921 92.8175 73.2111 96.4214 73.3489 100.617C73.4702 104.436 73.5036 108.261 73.5872 112.086C73.5865 112.211 73.6735 112.337 73.7166 112.463L73.7166 112.475Z" fill="#DFDFDF" fill-opacity="0.12"/>
<path d="M96.9628 55.8957C94.0617 57.6777 91.2614 59.3726 88.4984 61.1241C88.1396 61.3539 87.8168 61.8724 87.8081 62.2673C87.7315 66.6809 87.3789 71.099 89.5857 75.3006C93.6833 83.1061 102.937 87.3123 112.284 85.4687C121.135 83.7224 127.75 76.3699 127.844 68.0503C127.95 58.7904 127.943 49.536 128.03 40.2759C128.069 35.8182 130.893 32.2614 135.328 30.9023C139.706 29.5555 144.52 30.7882 147.328 34.1344C149.98 37.2915 150.41 40.7802 148.489 44.355C146.65 47.7736 143.511 49.5856 139.302 49.786C137.691 49.8641 136.067 49.7791 134.136 49.7675C134.12 52.4384 134.061 54.9021 134.147 57.3541C134.158 57.6552 134.876 58.1423 135.321 58.2014C147.649 59.9432 158.887 51.214 158.848 39.9656C158.814 30.9995 151.187 23.1602 141.45 22.0798C131.431 20.9725 121.904 26.7024 119.457 35.4405C118.957 37.2369 118.82 39.1484 118.79 41.0104C118.674 49.8001 118.709 58.5907 118.588 67.374C118.488 74.6089 111.388 79.231 104.078 76.9174C99.9417 75.6073 97.1047 71.9412 97.061 67.7401C97.0275 63.9153 97.0755 60.0909 97.0797 56.2663C97.0804 56.1409 96.9997 56.015 96.9566 55.8894L96.9628 55.8957Z" fill="#DFDFDF" fill-opacity="0.12"/>
<path d="M121.717 22.4754C124.574 20.6304 127.343 18.8726 130.063 17.0582C130.415 16.822 130.726 16.2909 130.728 15.9022C130.705 11.4881 130.963 7.06311 128.662 2.91116C124.395 -4.80134 115.045 -8.80123 105.741 -6.75043C96.9326 -4.8095 90.4797 2.68815 90.574 11.0089C90.6751 20.2638 90.8891 29.5257 91.0091 38.7808C91.0638 43.239 88.3272 46.8591 83.9233 48.3123C79.5759 49.7534 74.736 48.6271 71.8528 45.3494C69.1315 42.2483 68.6257 38.7718 70.4656 35.1588C72.2231 31.7021 75.3255 29.821 79.5281 29.5264C81.1401 29.417 82.7637 29.4581 84.6888 29.4258C84.6484 26.7546 84.6507 24.2905 84.5086 21.8381C84.4916 21.5371 83.7671 21.0688 83.316 21.0159C70.9481 19.5497 59.9094 28.5246 60.1992 39.7682C60.4338 48.7293 68.2314 56.4003 77.9884 57.2614C88.0275 58.1431 97.4241 52.2055 99.6776 43.4161C100.14 41.6132 100.233 39.6951 100.219 37.8329C100.14 29.042 99.9107 20.2566 99.8381 11.4658C99.7812 4.22997 106.776 -0.549567 114.13 1.60127C118.292 2.81755 121.211 6.42145 121.349 10.6168C121.47 14.4359 121.504 18.2607 121.587 22.0859C121.586 22.2113 121.674 22.3372 121.717 22.4628L121.717 22.4754Z" fill="#DFDFDF" fill-opacity="0.12"/>
<path d="M91.7669 242.436C88.9319 244.321 86.1945 246.116 83.4964 247.966C83.1462 248.208 82.8422 248.738 82.8478 249.133C82.9302 253.547 82.7371 257.975 85.094 262.094C89.4702 269.747 98.8699 273.617 108.144 271.437C116.927 269.373 123.272 261.787 123.066 253.469C122.838 244.212 122.498 234.964 122.251 225.706C122.129 221.25 124.823 217.594 129.206 216.076C133.533 214.572 138.388 215.631 141.315 218.873C144.079 221.933 144.635 225.404 142.844 229.045C141.129 232.528 138.057 234.452 133.859 234.804C132.251 234.94 130.625 234.914 128.695 234.972C128.775 237.641 128.806 240.106 128.979 242.553C129.001 242.853 129.736 243.314 130.183 243.357C142.566 244.654 153.482 235.525 153.038 224.286C152.681 215.326 144.776 207.767 135.006 207.038C124.954 206.293 115.64 212.362 113.509 221.183C113.074 222.996 113.006 224.912 113.043 226.773C113.245 235.562 113.596 244.345 113.791 253.127C113.952 260.361 107.023 265.236 99.6354 263.187C95.4543 262.027 92.487 258.466 92.2919 254.269C92.1206 250.448 92.0307 246.624 91.8971 242.802C91.8933 242.676 91.8081 242.554 91.7604 242.43L91.7669 242.436Z" fill="#DFDFDF" fill-opacity="0.12"/>
<path d="M115.3 208.145C118.089 206.198 120.794 204.342 123.446 202.43C123.79 202.182 124.081 201.64 124.069 201.251C123.886 196.841 123.985 192.409 121.536 188.343C116.993 180.789 107.506 177.129 98.2816 179.514C89.5489 181.771 83.3705 189.496 83.7646 197.808C84.1992 207.054 84.7469 216.302 85.2003 225.546C85.4157 230 82.8114 233.716 78.4627 235.327C74.17 236.924 69.2927 235.973 66.2932 232.801C63.4619 229.8 62.8311 226.344 64.5397 222.667C66.1715 219.149 69.204 217.158 73.3933 216.712C75.0003 216.544 76.6244 216.527 78.547 216.425C78.4104 213.757 78.3238 211.295 78.0935 208.849C78.0657 208.549 77.3248 208.107 76.872 208.07C64.4593 207.051 53.7512 216.418 54.4461 227.644C55.0035 236.59 63.0725 243.975 72.8542 244.484C82.9185 245.004 92.095 238.731 94.0303 229.866C94.4272 228.048 94.4511 226.128 94.3701 224.267C93.9744 215.485 93.4286 206.713 93.0392 197.931C92.7216 190.702 99.5393 185.673 106.966 187.558C111.17 188.623 114.216 192.12 114.505 196.307C114.764 200.12 114.936 203.941 115.157 207.76C115.161 207.886 115.252 208.008 115.3 208.132L115.3 208.145Z" fill="#DFDFDF" fill-opacity="0.12"/>
</svg>
