<svg width="144" height="263" viewBox="0 0 144 263" fill="none" xmlns="http://www.w3.org/2000/svg">
<path d="M80.9628 141.896C78.0617 143.678 75.2614 145.373 72.4984 147.124C72.1396 147.354 71.8168 147.872 71.8081 148.267C71.7315 152.681 71.3789 157.099 73.5857 161.301C77.6833 169.106 86.9374 173.312 96.2844 171.469C105.135 169.722 111.75 162.37 111.844 154.05C111.95 144.79 111.943 135.536 112.03 126.276C112.069 121.818 114.893 118.261 119.328 116.902C123.706 115.556 128.52 116.788 131.328 120.134C133.98 123.292 134.41 126.78 132.489 130.355C130.65 133.774 127.511 135.586 123.302 135.786C121.691 135.864 120.067 135.779 118.136 135.768C118.12 138.438 118.061 140.902 118.147 143.354C118.158 143.655 118.876 144.142 119.321 144.201C131.649 145.943 142.887 137.214 142.848 125.966C142.814 116.999 135.187 109.16 125.45 108.08C115.431 106.973 105.904 112.702 103.457 121.44C102.957 123.237 102.82 125.148 102.79 127.01C102.674 135.8 102.709 144.591 102.588 153.374C102.488 160.609 95.3876 165.231 88.0783 162.917C83.9417 161.607 81.1047 157.941 81.061 153.74C81.0275 149.915 81.0755 146.091 81.0797 142.266C81.0804 142.141 80.9997 142.015 80.9566 141.889L80.9628 141.896Z" fill="#DFDFDF" fill-opacity="0.12"/>
<path d="M105.717 108.475C108.574 106.63 111.343 104.873 114.063 103.058C114.415 102.822 114.726 102.291 114.728 101.902C114.705 97.4881 114.963 93.0631 112.662 88.9112C108.395 81.1987 99.0451 77.1988 89.7409 79.2496C80.9326 81.1905 74.4797 88.6882 74.574 97.0089C74.6751 106.264 74.8891 115.526 75.0091 124.781C75.0638 129.239 72.3272 132.859 67.9233 134.312C63.5759 135.753 58.736 134.627 55.8528 131.349C53.1315 128.248 52.6257 124.772 54.4656 121.159C56.2231 117.702 59.3255 115.821 63.5281 115.526C65.1401 115.417 66.7637 115.458 68.6888 115.426C68.6484 112.755 68.6507 110.291 68.5086 107.838C68.4916 107.537 67.7671 107.069 67.316 107.016C54.9481 105.55 43.9094 114.525 44.1992 125.768C44.4338 134.729 52.2314 142.4 61.9884 143.261C72.0275 144.143 81.4241 138.205 83.6776 129.416C84.1398 127.613 84.2329 125.695 84.219 123.833C84.1401 115.042 83.9107 106.257 83.8381 97.4658C83.7812 90.23 90.7758 85.4504 98.13 87.6013C102.292 88.8175 105.211 92.4214 105.349 96.6168C105.47 100.436 105.504 104.261 105.587 108.086C105.586 108.211 105.674 108.337 105.717 108.463L105.717 108.475Z" fill="#DFDFDF" fill-opacity="0.12"/>
<path d="M29.9628 222.896C27.0617 224.678 24.2614 226.373 21.4984 228.124C21.1396 228.354 20.8168 228.872 20.8081 229.267C20.7315 233.681 20.3789 238.099 22.5857 242.301C26.6833 250.106 35.9374 254.312 45.2844 252.469C54.1354 250.722 60.7504 243.37 60.8442 235.05C60.95 225.79 60.9428 216.536 61.0298 207.276C61.0691 202.818 63.8931 199.261 68.3278 197.902C72.706 196.556 77.5201 197.788 80.3277 201.134C82.9798 204.292 83.4102 207.78 81.489 211.355C79.6502 214.774 76.5107 216.586 72.3024 216.786C70.6905 216.864 69.0671 216.779 67.1361 216.768C67.1201 219.438 67.0614 221.902 67.147 224.354C67.1577 224.655 67.8758 225.142 68.3206 225.201C80.6493 226.943 91.8872 218.214 91.8481 206.966C91.8142 197.999 84.1869 190.16 74.45 189.08C64.4311 187.973 54.9041 193.702 52.4566 202.44C51.9567 204.237 51.8198 206.148 51.7898 208.01C51.6744 216.8 51.7094 225.591 51.5876 234.374C51.4878 241.609 44.3876 246.231 37.0783 243.917C32.9417 242.607 30.1047 238.941 30.061 234.74C30.0275 230.915 30.0755 227.091 30.0797 223.266C30.0804 223.141 29.9997 223.015 29.9566 222.889L29.9628 222.896Z" fill="#DFDFDF" fill-opacity="0.12"/>
<path d="M54.7166 189.475C57.5742 187.63 60.3435 185.873 63.063 184.058C63.4155 183.822 63.7259 183.291 63.7282 182.902C63.7046 178.488 63.9631 174.063 61.662 169.911C57.3946 162.199 48.0451 158.199 38.7409 160.25C29.9326 162.191 23.4797 169.688 23.574 178.009C23.6751 187.264 23.8891 196.526 24.0091 205.781C24.0638 210.239 21.3272 213.859 16.9233 215.312C12.5759 216.753 7.73605 215.627 4.85278 212.349C2.13146 209.248 1.62566 205.772 3.46563 202.159C5.22314 198.702 8.32549 196.821 12.5281 196.526C14.1401 196.417 15.7637 196.458 17.6888 196.426C17.6484 193.755 17.6507 191.291 17.5086 188.838C17.4916 188.537 16.7671 188.069 16.316 188.016C3.94809 186.55 -7.09064 195.525 -6.80077 206.768C-6.56617 215.729 1.23139 223.4 10.9884 224.261C21.0275 225.143 30.4241 219.205 32.6776 210.416C33.1398 208.613 33.2329 206.695 33.219 204.833C33.1401 196.042 32.9107 187.257 32.8381 178.466C32.7812 171.23 39.7758 166.45 47.13 168.601C51.2921 169.818 54.2111 173.421 54.3489 177.617C54.4702 181.436 54.5036 185.261 54.5872 189.086C54.5865 189.211 54.6735 189.337 54.7166 189.463L54.7166 189.475Z" fill="#DFDFDF" fill-opacity="0.12"/>
<path d="M42.8285 63.8533C40.3952 65.4716 38.0458 67.0119 35.73 68.5997C35.4294 68.808 35.1685 69.2627 35.1733 69.6017C35.2441 73.3897 35.0783 77.1902 37.1012 80.7258C40.8573 87.2941 48.925 90.6157 56.8852 88.7452C64.423 86.9735 69.8695 80.4624 69.6927 73.3235C69.4969 65.3776 69.2045 57.44 68.9927 49.4946C68.8885 45.6699 71.2007 42.5316 74.9625 41.2288C78.6762 39.9381 82.8436 40.8466 85.3553 43.6299C87.7277 46.2558 88.2048 49.2348 86.6675 52.3605C85.196 55.3497 82.5592 57.001 78.9558 57.3031C77.5757 57.4199 76.1806 57.3972 74.5239 57.447C74.5928 59.7384 74.6186 61.8535 74.7679 63.954C74.7864 64.2119 75.4174 64.6075 75.8008 64.6444C86.4294 65.7571 95.7986 57.9221 95.4171 48.2751C95.1107 40.5856 88.326 34.0975 79.9408 33.4719C71.313 32.8321 63.3186 38.0416 61.4895 45.6123C61.1164 47.1686 61.0581 48.8124 61.09 50.4104C61.2628 57.9532 61.5647 65.4922 61.732 73.0298C61.8702 79.2385 55.9231 83.4227 49.582 81.6643C45.9934 80.6685 43.4466 77.6117 43.2791 74.0096C43.1321 70.73 43.055 67.4482 42.9403 64.1676C42.937 64.06 42.8639 63.9545 42.823 63.8481L42.8285 63.8533Z" fill="#DFDFDF" fill-opacity="0.12"/>
<path d="M63.0274 34.4217C65.4214 32.7507 67.7423 31.1574 70.0188 29.5169C70.3139 29.3035 70.5637 28.8384 70.5537 28.5049C70.3968 24.7194 70.4817 20.916 68.3795 17.4259C64.4806 10.9426 56.3375 7.80091 48.4203 9.84778C40.9252 11.7851 35.6222 18.4157 35.9605 25.5497C36.3335 33.4849 36.8036 41.4226 37.1928 49.3573C37.3776 53.1796 35.1423 56.3693 31.4099 57.7521C27.7255 59.1226 23.5394 58.3062 20.9649 55.5841C18.5348 53.0083 17.9934 50.042 19.4598 46.8861C20.8604 43.8668 23.4632 42.1573 27.0588 41.7747C28.4381 41.6309 29.8321 41.616 31.4822 41.5287C31.365 39.2387 31.2907 37.1251 31.093 35.026C31.0691 34.7683 30.4332 34.3891 30.0446 34.3577C19.3908 33.4826 10.2001 41.5222 10.7965 51.1573C11.275 58.8363 18.2005 65.1748 26.5961 65.6116C35.2343 66.0573 43.1104 60.6737 44.7714 53.0651C45.1122 51.5043 45.1326 49.8563 45.0631 48.2594C44.7235 40.7216 44.255 33.193 43.9208 25.6551C43.6482 19.4504 49.4998 15.1345 55.8743 16.7518C59.482 17.6663 62.0972 20.6672 62.3452 24.2615C62.5673 27.5335 62.7143 30.8132 62.9044 34.0916C62.9076 34.1991 62.9861 34.3045 63.027 34.4109L63.0274 34.4217Z" fill="#DFDFDF" fill-opacity="0.12"/>
</svg>
