<svg width="18" height="17" viewBox="0 0 18 17" fill="none" xmlns="http://www.w3.org/2000/svg">
<path fill-rule="evenodd" clip-rule="evenodd" d="M4.83464 0.791992C3.48883 0.791992 2.27184 1.12835 1.38852 1.94858C0.496819 2.77659 0.0429688 4.0062 0.0429688 5.58366V11.417C0.0429688 12.9945 0.496819 14.2241 1.38852 15.0521C2.27184 15.8723 3.48883 16.2087 4.83464 16.2087H13.168C14.5138 16.2087 15.7308 15.8723 16.6141 15.0521C17.5058 14.2241 17.9596 12.9945 17.9596 11.417V5.58366C17.9596 4.0062 17.5058 2.77659 16.6141 1.94858C15.7308 1.12835 14.5138 0.791992 13.168 0.791992H4.83464ZM15.0251 5.46891C15.2981 5.25786 15.3485 4.86534 15.1374 4.59221C14.9264 4.31907 14.5339 4.26874 14.2607 4.4798L9.63813 8.05166C9.26305 8.34158 8.73947 8.34158 8.3643 8.05166L3.7418 4.4798C3.46866 4.26874 3.07615 4.31907 2.86509 4.59221C2.65404 4.86534 2.70436 5.25786 2.9775 5.46891L7.60005 9.04082C8.42538 9.67849 9.57714 9.67849 10.4025 9.04082L15.0251 5.46891Z" fill="#E0EEF9"/>
</svg>
