<svg width="210" height="37" viewBox="0 0 210 37" fill="none" xmlns="http://www.w3.org/2000/svg">
<g clip-path="url(#clip0_47_110817)">
<path d="M31.7747 13.5078C30.9703 12.2138 29.7812 10.5001 27.8577 8.47162L27.2631 8.8913L27.1582 9.20606C28.5571 10.7099 29.7812 12.3887 30.8654 14.2423C30.9004 14.2772 30.9703 14.4171 30.9703 14.4171C31.5299 14.0674 31.7747 13.5078 31.7747 13.5078Z" fill="white"/>
<path d="M32.1945 16.6199C35.552 23.6496 34.5378 29.6301 29.6065 30.7142C24.1156 31.9383 16.1067 26.5874 11.3153 18.5784C10.1611 18.8932 9.35675 18.8932 8.02776 18.8932L7.22336 18.7882L7.53813 19.3129C12.6093 27.7765 22.1571 33.5121 28.7671 32.0782C34.8875 30.7143 36.916 23.2998 33.1388 15.9554L32.1945 16.6199ZM24.5703 6.75731C20.4434 3.25995 15.8618 1.40635 12.3645 2.17577C10.406 2.59546 9.35675 3.50477 8.69225 5.28842C7.29331 6.30266 5.50965 8.15626 5.50965 8.15626C4.81018 6.3726 4.74023 6.09281 4.74023 6.09281C6.03426 3.19 7.78294 1.96592 10.4759 1.3364C14.8126 0.322162 20.2336 2.24571 24.885 5.91795L24.5703 6.75731Z" fill="white"/>
<path d="M16.7707 11.1992C16.7707 8.50627 14.5324 6.19802 11.3847 5.32367C9.14643 7.1423 6.90811 8.85601 5.08949 11.0244C3.86541 9.52051 3.30583 8.15653 2.78123 6.61769C1.17244 7.77182 0.158203 9.38061 0.158203 11.1992C0.158203 14.6616 3.86541 17.4945 8.44695 17.4945C13.0635 17.4595 16.7707 14.6616 16.7707 11.1992ZM32.1241 16.4453C30.935 17.1797 29.606 17.5295 28.312 17.5295C26.8431 17.5295 25.654 16.8999 25.0245 16.1655L23.8004 20.4673L20.6178 21.6564L25.2693 5.39362H28.1021L27.7874 6.51278C29.0814 5.70838 30.4454 5.11383 31.9842 5.11383C35.1318 5.11383 37.0554 6.96743 35.7614 11.514C35.0969 13.8572 33.7329 15.466 32.1241 16.4453ZM30.8301 7.28219C29.4661 7.28219 28.0672 8.01664 27.0879 8.78606L25.654 13.7873C26.1086 14.4868 27.1928 15.3611 28.6267 15.3611C30.6902 15.3611 32.1591 14.1021 32.8586 11.584C33.7329 8.57622 32.9635 7.28219 30.8301 7.28219ZM46.5332 17.2497L48.4568 10.5347C49.1563 8.12156 48.2819 7.28219 46.3933 7.28219C44.4698 7.28219 43.0708 8.40135 42.5113 10.3249L40.5178 17.2847H37.6499L42.0216 1.9662L45.2392 0.742126L43.5955 6.51278C44.5747 5.63844 46.1485 5.11383 47.6524 5.11383C51.0448 5.11383 52.3389 6.93245 51.3246 10.4298L49.3661 17.2497H46.5332ZM61.8517 17.2497L62.2014 16.0606C60.9773 16.865 59.3686 17.4945 57.7948 17.4945C55.4515 17.4945 53.0383 16.4103 53.8777 13.4725C54.6471 10.8145 57.48 9.62543 60.7675 9.62543C62.1315 9.62543 63.1457 9.76532 63.8802 10.0801L64.125 9.20574C64.5097 7.91172 63.7403 7.17727 61.9566 7.17727C60.4527 7.17727 59.2287 7.38712 57.9346 7.91172L57.3401 6.12806C58.9139 5.42859 60.5926 5.07886 62.6561 5.07886C65.9086 5.07886 67.7622 6.37288 66.9928 9.06585L64.6496 17.2147H61.8517M63.3206 12.1785C62.6211 11.8637 61.6768 11.6539 60.138 11.6539C58.3194 11.6539 56.9554 12.3184 56.6406 13.4376C56.2909 14.6267 56.9904 15.3961 58.8789 15.3961C60.4178 15.3961 61.9566 14.6267 62.831 13.8922L63.3206 12.1785ZM79.3735 7.84177C78.8489 7.56198 78.2543 7.42209 77.31 7.42209C75.4914 7.42209 74.1624 8.4713 73.5679 10.4648L71.6093 17.2497H68.7765L72.1689 5.35864H75.0368L74.722 6.4778C75.6313 5.67341 76.9953 5.07886 78.4642 5.07886C79.6183 5.07886 80.2828 5.25372 80.8074 5.56848L79.3735 7.84177ZM97.28 17.2497L99.2035 10.5347C99.903 8.12156 99.2385 7.28219 97.3499 7.28219C95.4264 7.28219 94.2373 8.40135 93.6777 10.3249L91.6842 17.2847H88.8164L90.7399 10.5697C91.4394 8.15654 90.7749 7.31717 88.8863 7.31717C86.9628 7.31717 85.7737 8.43633 85.2141 10.3599L83.2206 17.3196H80.3527L83.7802 5.42859H86.648L86.3332 6.54775C87.3125 5.67341 88.7114 5.14881 90.2153 5.14881C92.1738 5.14881 93.258 5.77833 93.7127 6.89749C95.0766 5.81331 96.4056 5.14881 98.6789 5.14881C102.071 5.14881 103.156 6.96743 102.141 10.4648L100.183 17.2847H97.28M112.598 17.2497L112.948 16.0606C111.724 16.865 110.115 17.4945 108.542 17.4945C106.198 17.4945 103.785 16.4103 104.624 13.4725C105.394 10.8145 108.227 9.62543 111.514 9.62543C112.878 9.62543 113.927 9.76532 114.627 10.0801L114.872 9.20574C115.256 7.91172 114.487 7.17727 112.703 7.17727C111.199 7.17727 109.975 7.38712 108.681 7.91172L108.087 6.12806C109.661 5.42859 111.339 5.07886 113.403 5.07886C116.655 5.07886 118.509 6.37288 117.74 9.06585L115.396 17.2147H112.598M114.067 12.1785C113.368 11.8637 112.424 11.6539 110.885 11.6539C109.066 11.6539 107.702 12.3184 107.387 13.4376C107.038 14.6267 107.737 15.3961 109.626 15.3961C111.165 15.3961 112.703 14.6267 113.578 13.8922L114.067 12.1785ZM131.099 8.78606C130.19 7.77183 129.281 7.35214 127.952 7.35214C125.888 7.35214 124.105 8.856 123.405 11.3042C122.741 13.6474 123.475 15.3261 125.749 15.3261C127.112 15.3261 128.057 14.8365 129.491 13.8572L130.89 15.3261C129.421 16.5152 127.672 17.5644 125.049 17.5644C121.482 17.5644 119.453 15.1163 120.502 11.4091C121.622 7.45706 125.119 5.18377 128.686 5.18377C130.82 5.18377 132.289 5.88325 133.268 7.21225L131.099 8.78606ZM137.395 21.4465H134.387L137.744 17.0398L135.751 5.35864H138.899L139.598 11.1992C139.738 12.2484 139.913 13.9971 139.878 14.6616C140.333 13.9622 141.417 12.2485 142.151 11.2342L146.313 5.35864H149.321L137.395 21.4465ZM159.848 8.78606C158.939 7.77183 158.029 7.35214 156.7 7.35214C154.637 7.35214 152.853 8.856 152.154 11.3042C151.489 13.6474 152.224 15.3261 154.497 15.3261C155.861 15.3261 156.805 14.8365 158.239 13.8572L159.638 15.3261C158.169 16.5152 156.42 17.5644 153.797 17.5644C150.23 17.5644 148.202 15.1163 149.251 11.4091C150.37 7.45706 153.867 5.18377 157.435 5.18377C159.568 5.18377 161.037 5.88325 162.016 7.21225L159.848 8.78606ZM162.891 17.2497L167.262 1.9662L170.48 0.742126L165.758 17.2497H162.891ZM170.235 17.2497L173.627 5.35864H176.495L173.068 17.2497H170.235ZM175.551 3.8198C174.537 3.8198 173.872 3.15531 174.117 2.31594C174.362 1.47657 175.376 0.812067 176.425 0.812067C177.44 0.812067 178.069 1.47657 177.824 2.31594C177.579 3.15531 176.53 3.8198 175.551 3.8198ZM189.051 8.78606C188.141 7.77183 187.232 7.35214 185.903 7.35214C183.84 7.35214 182.056 8.856 181.357 11.3042C180.692 13.6474 181.427 15.3261 183.7 15.3261C185.064 15.3261 186.008 14.8365 187.442 13.8572L188.841 15.3261C187.372 16.5152 185.623 17.5644 183 17.5644C179.433 17.5644 177.405 15.1163 178.454 11.4091C179.573 7.45706 183.07 5.18377 186.638 5.18377C188.771 5.18377 190.24 5.88325 191.219 7.21225L189.051 8.78606ZM196.465 17.5295C194.507 17.5295 192.548 16.8999 191.324 16.0256L193.143 14.2769C194.297 15.0463 195.696 15.466 197.06 15.466C198.878 15.466 199.858 14.9764 200.102 14.137C200.347 13.2277 199.193 12.808 197.305 12.1435C194.472 11.1293 193.562 10.2899 194.087 8.40135C194.682 6.26796 197.06 5.14881 199.998 5.14881C201.816 5.14881 203.46 5.70838 204.544 6.4778L202.795 8.26146C201.781 7.59696 200.697 7.24722 199.298 7.24722C197.899 7.24722 197.165 7.70187 196.99 8.3314C196.815 8.92595 197.2 9.34564 199.193 10.0451C202.166 11.0594 203.6 11.7938 202.97 14.0321C202.166 16.6202 199.298 17.5295 196.465 17.5295ZM207.692 9.52051C206.363 9.52051 205.383 8.57622 205.383 7.21225C205.383 5.84828 206.398 4.90399 207.692 4.90399C209.021 4.90399 210 5.84828 210 7.21225C210 8.57622 208.986 9.52051 207.692 9.52051ZM207.692 5.14881C206.538 5.14881 205.698 5.98817 205.698 7.17727C205.698 8.36638 206.573 9.20574 207.692 9.20574C208.811 9.20574 209.685 8.36638 209.685 7.17727C209.685 5.98817 208.811 5.14881 207.692 5.14881ZM208.111 7.31717L208.671 8.40135H208.286L207.727 7.31717H207.167V8.40135H206.817V5.84828H207.867C208.321 5.84828 208.706 6.09309 208.706 6.58272C208.706 7.0024 208.496 7.24722 208.111 7.31717ZM207.867 6.16304H207.167V7.03738H207.797C208.146 7.03738 208.321 6.89748 208.321 6.61769C208.356 6.30293 208.181 6.16304 207.867 6.16304Z" fill="white"/>
<path d="M131.484 29.5609C131.309 29.1062 131.239 28.8614 131.239 28.8264C131.239 28.8264 131.169 29.0713 130.994 29.5609L130.295 31.6593H132.219L131.484 29.5609ZM133.233 34.0725C133.128 34.0725 133.058 34.0025 132.988 33.8976L132.428 32.3588H130.05L129.561 33.8976C129.526 34.0025 129.456 34.0725 129.351 34.0725H128.966C128.826 34.0725 128.756 33.9676 128.791 33.8277L130.75 28.127C130.785 28.022 130.855 27.9521 130.959 27.9521H131.484C131.589 27.9521 131.659 27.9871 131.729 28.127L133.827 33.8626C133.862 34.0025 133.827 34.1075 133.652 34.1075H133.233M137.465 34.0725C137.325 34.0725 137.29 34.0025 137.29 33.8626V31.2746C137.255 30.715 136.975 30.3303 136.415 30.3303C136.101 30.3303 135.716 30.4702 135.401 30.8199V33.8626C135.401 34.0025 135.331 34.0725 135.226 34.0725H134.842C134.702 34.0725 134.667 34.0025 134.667 33.8626V29.9456C134.667 29.8057 134.737 29.7358 134.842 29.7358L135.156 29.7008C135.296 29.7008 135.331 29.7707 135.366 29.8756V30.2254C135.751 29.7707 136.171 29.6308 136.625 29.6308C137.255 29.6308 137.709 29.9106 137.919 30.4352C138.059 30.785 138.059 31.2046 138.059 31.6593V33.8277C138.059 33.9676 137.989 34.0375 137.884 34.0375H137.465M143.025 29.5609C142.851 29.1062 142.781 28.8614 142.781 28.8264C142.781 28.8264 142.711 29.0713 142.536 29.5609L141.836 31.6593H143.76L143.025 29.5609ZM144.774 34.0725C144.669 34.0725 144.599 34.0025 144.529 33.8976L143.97 32.3588H141.591L141.102 33.8976C141.067 34.0025 140.997 34.0725 140.892 34.0725H140.507C140.367 34.0725 140.297 33.9676 140.332 33.8277L142.291 28.127C142.326 28.022 142.396 27.9521 142.501 27.9521H143.025C143.13 27.9521 143.2 27.9871 143.235 28.127L145.334 33.8626C145.369 34.0025 145.334 34.1075 145.159 34.1075H144.774M147.957 30.2953C147.607 30.2953 147.257 30.4003 146.907 30.8199V32.8134C146.907 33.0582 146.907 33.1981 146.873 33.338C147.152 33.443 147.432 33.4779 147.712 33.4779C148.551 33.4779 149.111 32.9184 149.111 31.8342C149.111 30.785 148.551 30.2953 147.957 30.2953ZM147.607 34.1424C147.187 34.1424 146.698 34.0725 146.348 33.9676C146.173 33.8976 146.103 33.8626 146.138 33.6878C146.173 33.5479 146.173 33.338 146.173 33.0233V27.6373C146.173 27.4974 146.243 27.4625 146.348 27.4275L146.733 27.3925C146.873 27.3925 146.942 27.4625 146.942 27.5674V29.6308C146.942 29.9806 146.907 30.1554 146.907 30.2254C147.257 29.7707 147.712 29.5959 148.167 29.5959C149.111 29.5959 149.88 30.3303 149.88 31.7293C149.88 33.2331 149.041 34.1424 147.607 34.1424ZM152.748 30.2953C152.398 30.2953 152.049 30.4003 151.699 30.8199V32.8134C151.699 33.0582 151.699 33.1981 151.664 33.338C151.944 33.443 152.223 33.4779 152.503 33.4779C153.343 33.4779 153.902 32.9184 153.902 31.8342C153.867 30.785 153.308 30.2953 152.748 30.2953ZM152.398 34.1424C151.979 34.1424 151.489 34.0725 151.139 33.9676C150.964 33.8976 150.894 33.8626 150.929 33.6878C150.929 33.5479 150.964 33.338 150.964 33.0233V27.6373C150.964 27.4974 151.034 27.4625 151.139 27.4275L151.524 27.3925C151.664 27.3925 151.734 27.4625 151.734 27.5674V29.6308C151.734 29.9806 151.699 30.1554 151.699 30.2254C152.049 29.7707 152.503 29.5959 152.958 29.5959C153.902 29.5959 154.672 30.3303 154.672 31.7293C154.637 33.2331 153.832 34.1424 152.398 34.1424ZM158.449 33.8626C158.414 33.9676 158.344 34.0375 158.239 34.0375L157.679 34.0725C157.539 34.0725 157.504 34.0375 157.435 33.8976L155.406 28.1619C155.371 28.022 155.406 27.9171 155.546 27.9171H156.001C156.106 27.9171 156.175 27.9871 156.21 28.092L157.959 33.1632L159.673 28.092C159.708 27.9871 159.778 27.9171 159.883 27.9171H160.267C160.407 27.9171 160.477 28.022 160.442 28.1619L158.449 33.8626ZM161.526 34.0725C161.387 34.0725 161.352 34.0025 161.352 33.8626V29.9806C161.352 29.8757 161.422 29.8057 161.526 29.7707L161.911 29.7358C162.051 29.7358 162.121 29.7707 162.121 29.9106V33.8277C162.121 33.9676 162.051 34.0375 161.946 34.0375H161.526V34.0725ZM162.191 28.2669C162.191 28.5816 161.981 28.7915 161.701 28.7915C161.387 28.7915 161.212 28.5816 161.212 28.2669C161.212 27.9521 161.422 27.7423 161.736 27.7423C162.016 27.7423 162.191 27.9521 162.191 28.2669ZM164.884 30.1904C164.359 30.1904 163.87 30.5751 163.835 31.3445H165.863C165.863 30.6451 165.478 30.1904 164.884 30.1904ZM166.388 31.9041H163.8C163.8 32.9533 164.394 33.5129 165.339 33.5129C166.003 33.5129 166.353 33.3031 166.458 33.3031C166.563 33.3031 166.598 33.338 166.598 33.4779V33.6528C166.598 33.7577 166.563 33.8277 166.458 33.8626C166.073 34.0375 165.688 34.1075 165.269 34.1424C163.835 34.1774 163.065 33.1981 163.065 31.8342C163.065 30.5052 163.835 29.6308 164.989 29.6308C165.968 29.6308 166.633 30.3653 166.598 31.6943C166.598 31.8342 166.528 31.9041 166.388 31.9041ZM174.012 33.5129C174.012 33.6178 173.977 33.7227 173.837 33.7577C173.208 34.0375 172.613 34.1424 172.054 34.1424C171.319 34.1424 170.655 34.0025 170.06 33.5829C169.326 33.0582 168.871 32.114 168.871 31.0298C168.871 29.7707 169.361 28.9663 169.99 28.4767C170.515 28.057 171.249 27.8822 172.054 27.8822C172.543 27.8822 173.068 27.9521 173.662 28.1969C173.767 28.2319 173.837 28.3018 173.802 28.4417L173.767 28.7565C173.767 28.8964 173.697 28.9314 173.592 28.9314C173.452 28.9314 172.893 28.6166 171.984 28.6166C171.354 28.6166 170.829 28.7565 170.41 29.1062C169.92 29.5259 169.64 30.1554 169.64 30.9948C169.64 32.3238 170.48 33.443 172.054 33.443C173.033 33.443 173.697 33.0582 173.837 33.0582C173.942 33.0582 173.977 33.1282 173.977 33.2331L174.012 33.5129ZM177.16 30.2604C176.425 30.2604 175.936 30.8199 175.936 31.7992C175.936 32.7435 176.425 33.4779 177.16 33.4779H177.23C177.929 33.4779 178.419 32.8484 178.419 31.8342C178.419 30.9249 177.964 30.2604 177.16 30.2604ZM177.16 34.1424C176.075 34.1424 175.201 33.3031 175.201 31.8691C175.201 30.4702 176.075 29.6308 177.265 29.6308C178.384 29.6308 179.188 30.4352 179.188 31.7992C179.188 33.3031 178.244 34.1424 177.16 34.1424ZM185.693 34.0725C185.553 34.0725 185.518 34.0025 185.518 33.8626V31.2746C185.483 30.715 185.204 30.3303 184.609 30.3303C184.294 30.3303 183.91 30.4702 183.56 30.8899C183.595 31.0997 183.595 31.3445 183.595 31.6243V33.8626C183.595 34.0025 183.525 34.0725 183.42 34.0725H183.035C182.93 34.0725 182.86 34.0025 182.86 33.8626V31.7293C182.86 31.6243 182.86 31.4145 182.825 31.1697C182.79 30.715 182.511 30.3303 181.951 30.3303C181.636 30.3303 181.252 30.4702 180.937 30.8199V33.8626C180.937 34.0025 180.867 34.0725 180.762 34.0725H180.412C180.272 34.0725 180.237 34.0025 180.237 33.8626V29.9456C180.237 29.8057 180.307 29.7358 180.412 29.7358L180.727 29.7008C180.867 29.7008 180.902 29.7707 180.937 29.8756V30.2254C181.322 29.7707 181.741 29.6308 182.196 29.6308C182.755 29.6308 183.175 29.8757 183.385 30.3303C183.77 29.8407 184.259 29.6308 184.784 29.6308C185.413 29.6308 185.868 29.9106 186.078 30.4352C186.218 30.785 186.253 31.2046 186.253 31.6593V33.8277C186.253 33.9676 186.183 34.0375 186.078 34.0375H185.693M190.38 31.9041C190.38 30.8199 189.82 30.3303 189.261 30.3303C188.911 30.3303 188.561 30.4352 188.211 30.8549V33.373C188.456 33.4779 188.771 33.5129 189.016 33.5129C189.855 33.5129 190.38 32.9533 190.38 31.9041ZM191.149 31.7642C191.149 33.1981 190.345 34.1424 188.911 34.1424C188.666 34.1424 188.421 34.1075 188.211 34.0375V35.996C188.211 36.1359 188.141 36.2059 188.036 36.2059H187.652C187.512 36.2059 187.477 36.1359 187.477 35.996V29.9106C187.477 29.7707 187.547 29.7358 187.652 29.7008L187.967 29.6658C188.106 29.6658 188.176 29.7008 188.176 29.8407V30.2254C188.526 29.7707 188.981 29.5959 189.47 29.5959C190.38 29.6308 191.149 30.3653 191.149 31.7642ZM194.332 33.1632V32.114C193.003 32.079 192.618 32.5336 192.618 32.9184C192.618 33.2681 192.863 33.5479 193.352 33.5479C193.702 33.5479 194.052 33.408 194.332 33.1632ZM191.919 32.9883C191.919 32.3238 192.373 31.5544 194.332 31.5544V31.4145C194.332 31.1697 194.332 30.8899 194.262 30.715C194.122 30.4352 193.877 30.2953 193.457 30.2953C192.828 30.2953 192.443 30.5751 192.303 30.5751C192.233 30.5751 192.198 30.5052 192.163 30.4003V30.2254C192.163 30.0855 192.198 30.0155 192.338 29.9456C192.688 29.7707 193.143 29.6658 193.527 29.6658C194.262 29.6658 194.646 29.9106 194.856 30.2953C195.031 30.6101 195.066 30.9598 195.066 31.4495V33.0233C195.066 33.443 195.171 33.5829 195.486 33.5829C195.626 33.6178 195.696 33.6878 195.696 33.7927V33.9326C195.696 34.0375 195.626 34.1075 195.521 34.1424H195.206C194.856 34.1424 194.577 34.0025 194.472 33.6528C194.087 34.0375 193.667 34.1774 193.213 34.1774C192.443 34.1424 191.919 33.6878 191.919 32.9883ZM199.333 34.0725C199.193 34.0725 199.158 34.0025 199.158 33.8626V31.2746C199.123 30.715 198.843 30.3303 198.284 30.3303C197.969 30.3303 197.584 30.4702 197.27 30.8199V33.8626C197.27 34.0025 197.2 34.0725 197.095 34.0725H196.71C196.57 34.0725 196.535 34.0025 196.535 33.8626V29.9456C196.535 29.8057 196.605 29.7358 196.71 29.7358L197.025 29.7008C197.165 29.7008 197.2 29.7707 197.235 29.8756V30.2254C197.619 29.7707 198.039 29.6308 198.494 29.6308C199.123 29.6308 199.578 29.9106 199.788 30.4352C199.927 30.785 199.928 31.2046 199.928 31.6593V33.8277C199.928 33.9676 199.858 34.0375 199.753 34.0375H199.333M204.404 29.7358C204.544 29.7358 204.579 29.8057 204.579 29.9456C204.474 30.5751 204.334 31.3096 204.089 32.1839C203.81 33.1981 203.425 34.1424 202.865 34.8419C202.411 35.4365 201.816 35.9261 201.047 36.2409C200.942 36.2758 200.837 36.2408 200.802 36.1359L200.697 35.8561C200.627 35.7512 200.697 35.6463 200.802 35.6113C201.536 35.2616 201.991 34.9119 202.271 34.4922C201.571 32.7435 200.837 30.6101 200.627 29.9806C200.592 29.8407 200.627 29.7707 200.767 29.7707H201.222C201.326 29.7707 201.396 29.8057 201.431 29.9456C201.606 30.4702 202.201 32.4287 202.725 33.8277C202.97 33.373 203.215 32.6735 203.39 32.009C203.565 31.3445 203.705 30.5751 203.81 29.9456C203.81 29.8407 203.88 29.7707 203.984 29.7707H204.404" fill="white"/>
</g>
<defs>
<clipPath id="clip0_47_110817">
<rect width="209.842" height="35.5157" fill="white" transform="translate(0.158203 0.742126)"/>
</clipPath>
</defs>
</svg>
