<svg width="402" height="68" viewBox="0 0 402 68" fill="none" xmlns="http://www.w3.org/2000/svg">
<g clip-path="url(#clip0_606_91669)">
<path d="M61.3342 24.3952C59.797 21.9224 57.5247 18.6476 53.8489 14.7712L52.7127 15.5732L52.5122 16.1747C55.1855 19.0486 57.5247 22.2566 59.5965 25.7987C59.6634 25.8656 59.797 26.1329 59.797 26.1329C60.8664 25.4646 61.3342 24.3952 61.3342 24.3952Z" fill="white"/>
<path d="M62.1358 30.3417C68.5518 43.7752 66.6136 55.2037 57.1901 57.2755C46.6973 59.6147 31.3925 49.3892 22.2363 34.0844C20.0308 34.6859 18.4936 34.6859 15.954 34.6859L14.4168 34.4854L15.0183 35.4879C24.7091 51.6615 42.9546 62.6222 55.5861 59.882C67.282 57.2755 71.1583 43.1069 63.9403 29.0719L62.1358 30.3417ZM47.5661 11.4947C39.6798 4.81137 30.9246 1.26921 24.2413 2.73955C20.4986 3.54155 18.4936 5.27921 17.2238 8.68771C14.5505 10.6259 11.142 14.168 11.142 14.168C9.8053 10.7595 9.67163 10.2249 9.67163 10.2249C12.1445 4.6777 15.4861 2.33853 20.6323 1.13553C28.9196 -0.802635 39.2788 2.8732 48.1676 9.8907L47.5661 11.4947Z" fill="#EFF9FF"/>
<path d="M32.6626 19.9832C32.6626 14.837 28.3853 10.426 22.3703 8.75517C18.0929 12.2305 13.8156 15.5053 10.3403 19.649C8.00108 16.7752 6.93175 14.1687 5.92925 11.228C2.85491 13.4335 0.916748 16.5078 0.916748 19.9832C0.916748 26.5997 8.00108 32.0132 16.7562 32.0132C25.5782 31.9463 32.6626 26.5997 32.6626 19.9832ZM62.0024 30.0082C59.7301 31.4117 57.1904 32.08 54.7176 32.08C51.9106 32.08 49.6383 30.877 48.4353 29.4735L46.0961 37.694L40.0143 39.9663L48.9031 8.88882H54.3166L53.7151 11.0275C56.1879 9.49033 58.7944 8.35417 61.7351 8.35417C67.7501 8.35417 71.4259 11.8963 68.9531 20.5847C67.6833 25.0625 65.0767 28.1368 62.0024 30.0082ZM59.5296 12.4978C56.9231 12.4978 54.2497 13.9013 52.3784 15.3717L49.6382 24.9288C50.5071 26.2655 52.5789 27.9363 55.3191 27.9363C59.2622 27.9363 62.0692 25.5303 63.4059 20.7183C65.0768 14.9707 63.6064 12.4978 59.5296 12.4978ZM89.5377 31.5453L93.2136 18.7133C94.5502 14.1018 92.8794 12.4978 89.2704 12.4978C85.5946 12.4978 82.9212 14.6365 81.8519 18.3123L78.0424 31.6122H72.5621L80.9162 2.33917L87.0649 0L83.9238 11.0275C85.7951 9.35667 88.8026 8.35417 91.6764 8.35417C98.1593 8.35417 100.632 11.8295 98.6939 18.5128L94.9512 31.5453H89.5377ZM118.811 31.5453L119.479 29.273C117.14 30.8102 114.066 32.0132 111.058 32.0132C106.58 32.0132 101.969 29.9413 103.573 24.3273C105.043 19.248 110.457 16.9757 116.739 16.9757C119.345 16.9757 121.284 17.243 122.687 17.8445L123.155 16.1737C123.89 13.7008 122.42 12.2973 119.011 12.2973C116.137 12.2973 113.798 12.6983 111.325 13.7008L110.189 10.2923C113.197 8.95566 116.405 8.28733 120.348 8.28733C126.563 8.28733 130.106 10.7602 128.635 15.9063L124.157 31.4785H118.811M121.618 21.8545C120.281 21.253 118.477 20.852 115.536 20.852C112.061 20.852 109.454 22.1218 108.853 24.2605C108.184 26.5328 109.521 28.0032 113.13 28.0032C116.071 28.0032 119.011 26.5328 120.682 25.1293L121.618 21.8545ZM152.294 13.5672C151.292 13.0325 150.156 12.7652 148.351 12.7652C144.876 12.7652 142.336 14.7702 141.2 18.5797L137.457 31.5453H132.044L138.527 8.82199H144.007L143.405 10.9607C145.143 9.4235 147.75 8.28733 150.557 8.28733C152.762 8.28733 154.032 8.62149 155.034 9.22299L152.294 13.5672ZM186.513 31.5453L190.189 18.7133C191.525 14.1018 190.256 12.4978 186.647 12.4978C182.971 12.4978 180.698 14.6365 179.629 18.3123L175.82 31.6122H170.339L174.015 18.7802C175.352 14.1687 174.082 12.5647 170.473 12.5647C166.797 12.5647 164.525 14.7033 163.455 18.3792L159.646 31.679H154.166L160.715 8.95566H166.196L165.594 11.0943C167.465 9.4235 170.139 8.421 173.013 8.421C176.755 8.421 178.827 9.624 179.696 11.7627C182.302 9.69084 184.842 8.421 189.186 8.421C195.669 8.421 197.741 11.8963 195.803 18.5797L192.06 31.6122H186.513M215.786 31.5453L216.454 29.273C214.115 30.8102 211.041 32.0132 208.033 32.0132C203.555 32.0132 198.944 29.9413 200.548 24.3273C202.018 19.248 207.432 16.9757 213.714 16.9757C216.321 16.9757 218.326 17.243 219.662 17.8445L220.13 16.1737C220.865 13.7008 219.395 12.2973 215.986 12.2973C213.113 12.2973 210.773 12.6983 208.301 13.7008L207.164 10.2923C210.172 8.95566 213.38 8.28733 217.323 8.28733C223.539 8.28733 227.081 10.7602 225.61 15.9063L221.133 31.4785H215.786M218.593 21.8545C217.256 21.253 215.452 20.852 212.511 20.852C209.036 20.852 206.429 22.1218 205.828 24.2605C205.159 26.5328 206.496 28.0032 210.105 28.0032C213.046 28.0032 215.986 26.5328 217.657 25.1293L218.593 21.8545ZM251.141 15.3717C249.403 13.4335 247.665 12.6315 245.126 12.6315C241.183 12.6315 237.774 15.5053 236.437 20.1837C235.168 24.6615 236.571 27.8695 240.915 27.8695C243.522 27.8695 245.326 26.9338 248.066 25.0625L250.74 27.8695C247.933 30.1418 244.591 32.1468 239.579 32.1468C232.762 32.1468 228.885 27.4685 230.89 20.3842C233.029 12.832 239.712 8.48782 246.529 8.48782C250.606 8.48782 253.413 9.8245 255.284 12.3642L251.141 15.3717ZM263.171 39.5653H257.423L263.839 31.1443L260.03 8.82199H266.045L267.381 19.9832C267.649 21.9882 267.983 25.3298 267.916 26.5997C268.785 25.263 270.857 21.9882 272.26 20.05L280.213 8.82199H285.961L263.171 39.5653ZM306.078 15.3717C304.34 13.4335 302.602 12.6315 300.063 12.6315C296.12 12.6315 292.711 15.5053 291.374 20.1837C290.105 24.6615 291.508 27.8695 295.852 27.8695C298.459 27.8695 300.263 26.9338 303.003 25.0625L305.677 27.8695C302.87 30.1418 299.528 32.1468 294.516 32.1468C287.699 32.1468 283.822 27.4685 285.827 20.3842C287.966 12.832 294.649 8.48782 301.466 8.48782C305.543 8.48782 308.35 9.8245 310.221 12.3642L306.078 15.3717ZM311.892 31.5453L320.246 2.33917L326.395 0L317.373 31.5453H311.892ZM325.927 31.5453L332.41 8.82199H337.89L331.341 31.5453H325.927ZM336.086 5.88132C334.148 5.88132 332.878 4.6115 333.346 3.0075C333.814 1.4035 335.752 0.133654 337.757 0.133654C339.695 0.133654 340.898 1.4035 340.43 3.0075C339.962 4.6115 337.957 5.88132 336.086 5.88132ZM361.884 15.3717C360.146 13.4335 358.408 12.6315 355.869 12.6315C351.925 12.6315 348.517 15.5053 347.18 20.1837C345.91 24.6615 347.314 27.8695 351.658 27.8695C354.265 27.8695 356.069 26.9338 358.809 25.0625L361.483 27.8695C358.676 30.1418 355.334 32.1468 350.321 32.1468C343.504 32.1468 339.628 27.4685 341.633 20.3842C343.772 12.832 350.455 8.48782 357.272 8.48782C361.349 8.48782 364.156 9.8245 366.027 12.3642L361.884 15.3717ZM376.052 32.08C372.31 32.08 368.567 30.877 366.228 29.2062L369.703 25.8645C371.909 27.3348 374.582 28.1368 377.188 28.1368C380.664 28.1368 382.535 27.2012 383.003 25.5972C383.471 23.8595 381.265 23.0575 377.656 21.7877C372.243 19.8495 370.505 18.2455 371.508 14.6365C372.644 10.5597 377.188 8.421 382.802 8.421C386.278 8.421 389.419 9.49033 391.491 10.9607L388.149 14.3692C386.211 13.0993 384.139 12.431 381.466 12.431C378.792 12.431 377.389 13.2998 377.055 14.5028C376.721 15.639 377.456 16.441 381.265 17.7777C386.946 19.7158 389.686 21.1193 388.483 25.3967C386.946 30.3423 381.466 32.08 376.052 32.08ZM397.506 16.7752C394.966 16.7752 393.095 14.9707 393.095 12.3642C393.095 9.75767 395.033 7.95316 397.506 7.95316C400.045 7.95316 401.917 9.75767 401.917 12.3642C401.917 14.9707 399.979 16.7752 397.506 16.7752ZM397.506 8.421C395.3 8.421 393.696 10.025 393.696 12.2973C393.696 14.5697 395.367 16.1737 397.506 16.1737C399.644 16.1737 401.315 14.5697 401.315 12.2973C401.315 10.025 399.644 8.421 397.506 8.421ZM398.308 12.5647L399.377 14.6365H398.642L397.573 12.5647H396.503V14.6365H395.835V9.75767H397.84C398.709 9.75767 399.444 10.2255 399.444 11.1612C399.444 11.9632 399.043 12.431 398.308 12.5647ZM397.84 10.3592H396.503V12.03H397.706C398.375 12.03 398.709 11.7627 398.709 11.228C398.776 10.6265 398.441 10.3592 397.84 10.3592Z" fill="#EFF9FF"/>
<path d="M251.876 55.0702C251.542 54.2014 251.408 53.7335 251.408 53.6667C251.408 53.6667 251.274 54.1345 250.94 55.0702L249.604 59.0802H253.279L251.876 55.0702ZM255.217 63.6917C255.017 63.6917 254.883 63.558 254.75 63.3575L253.68 60.4169H249.136L248.2 63.3575C248.133 63.558 248 63.6917 247.799 63.6917H247.064C246.797 63.6917 246.663 63.4912 246.73 63.2239L250.472 52.33C250.539 52.1295 250.673 51.9959 250.873 51.9959H251.876C252.076 51.9959 252.21 52.0627 252.344 52.33L256.354 63.2907C256.421 63.558 256.354 63.7585 256.02 63.7585H255.217M263.304 63.6917C263.037 63.6917 262.97 63.558 262.97 63.2907V58.345C262.903 57.2757 262.369 56.5405 261.299 56.5405C260.698 56.5405 259.963 56.8079 259.361 57.4762V63.2907C259.361 63.558 259.228 63.6917 259.027 63.6917H258.292C258.025 63.6917 257.958 63.558 257.958 63.2907V55.8054C257.958 55.538 258.091 55.4044 258.292 55.4044L258.893 55.3375C259.161 55.3375 259.228 55.4712 259.294 55.6717V56.34C260.03 55.4712 260.832 55.2039 261.7 55.2039C262.903 55.2039 263.772 55.7385 264.173 56.741C264.441 57.4094 264.441 58.2114 264.441 59.0802V63.2239C264.441 63.4912 264.307 63.6248 264.106 63.6248H263.304M273.931 55.0702C273.597 54.2014 273.463 53.7335 273.463 53.6667C273.463 53.6667 273.329 54.1345 272.995 55.0702L271.659 59.0802H275.334L273.931 55.0702ZM277.272 63.6917C277.072 63.6917 276.938 63.558 276.805 63.3575L275.735 60.4169H271.191L270.255 63.3575C270.188 63.558 270.055 63.6917 269.854 63.6917H269.119C268.852 63.6917 268.718 63.4912 268.785 63.2239L272.527 52.33C272.594 52.1295 272.728 51.9959 272.928 51.9959H273.931C274.131 51.9959 274.265 52.0627 274.332 52.33L278.342 63.2907C278.409 63.558 278.342 63.7585 278.008 63.7585H277.272M283.354 56.4737C282.686 56.4737 282.018 56.6742 281.349 57.4762V61.2857C281.349 61.7535 281.349 62.0208 281.282 62.2882C281.817 62.4887 282.352 62.5555 282.887 62.5555C284.491 62.5555 285.56 61.4862 285.56 59.4144C285.56 57.4094 284.491 56.4737 283.354 56.4737ZM282.686 63.8254C281.884 63.8254 280.948 63.6917 280.28 63.4912C279.946 63.3575 279.812 63.2907 279.879 62.9565C279.946 62.6892 279.946 62.2882 279.946 61.6867V51.3944C279.946 51.127 280.079 51.0602 280.28 50.9934L281.015 50.9265C281.283 50.9265 281.416 51.0602 281.416 51.2607V55.2039C281.416 55.8722 281.349 56.2064 281.349 56.34C282.018 55.4712 282.887 55.137 283.755 55.137C285.56 55.137 287.03 56.5405 287.03 59.2139C287.03 62.0877 285.426 63.8254 282.686 63.8254ZM292.511 56.4737C291.842 56.4737 291.174 56.6742 290.506 57.4762V61.2857C290.506 61.7535 290.506 62.0208 290.439 62.2882C290.973 62.4887 291.508 62.5555 292.043 62.5555C293.647 62.5555 294.716 61.4862 294.716 59.4144C294.649 57.4094 293.58 56.4737 292.511 56.4737ZM291.842 63.8254C291.04 63.8254 290.105 63.6917 289.436 63.4912C289.102 63.3575 288.968 63.2907 289.035 62.9565C289.035 62.6892 289.102 62.2882 289.102 61.6867V51.3944C289.102 51.127 289.236 51.0602 289.436 50.9934L290.171 50.9265C290.439 50.9265 290.572 51.0602 290.572 51.2607V55.2039C290.572 55.8722 290.506 56.2064 290.506 56.34C291.174 55.4712 292.043 55.137 292.912 55.137C294.716 55.137 296.186 56.5405 296.186 59.2139C296.12 62.0877 294.582 63.8254 291.842 63.8254ZM303.404 63.2907C303.337 63.4912 303.204 63.6248 303.003 63.6248L301.934 63.6917C301.667 63.6917 301.6 63.6249 301.466 63.3575L297.59 52.3969C297.523 52.1295 297.59 51.929 297.857 51.929H298.726C298.926 51.929 299.06 52.0627 299.127 52.2632L302.469 61.954L305.743 52.2632C305.81 52.0627 305.944 51.929 306.145 51.929H306.88C307.147 51.929 307.281 52.1295 307.214 52.3969L303.404 63.2907ZM309.286 63.6917C309.018 63.6917 308.952 63.558 308.952 63.2907V55.8722C308.952 55.6717 309.085 55.538 309.286 55.4712L310.021 55.4044C310.288 55.4044 310.422 55.4712 310.422 55.7385V63.2239C310.422 63.4912 310.288 63.6248 310.088 63.6248H309.286V63.6917ZM310.556 52.5973C310.556 53.1988 310.155 53.5998 309.62 53.5998C309.018 53.5998 308.684 53.1988 308.684 52.5973C308.684 51.9958 309.085 51.5948 309.687 51.5948C310.221 51.5948 310.556 51.9958 310.556 52.5973ZM315.702 56.2732C314.699 56.2732 313.763 57.0084 313.697 58.4787H317.573C317.573 57.142 316.838 56.2732 315.702 56.2732ZM318.576 59.548H313.63C313.63 61.553 314.766 62.6223 316.571 62.6223C317.84 62.6223 318.509 62.2214 318.709 62.2214C318.91 62.2214 318.977 62.2882 318.977 62.5555V62.8897C318.977 63.0902 318.91 63.2238 318.709 63.2907C317.974 63.6248 317.239 63.7585 316.437 63.8254C313.697 63.8922 312.226 62.0209 312.226 59.4144C312.226 56.8747 313.697 55.2039 315.902 55.2039C317.774 55.2039 319.043 56.6074 318.977 59.147C318.977 59.4144 318.843 59.548 318.576 59.548ZM333.145 62.6223C333.145 62.8228 333.078 63.0234 332.811 63.0902C331.608 63.6249 330.472 63.8254 329.402 63.8254C327.999 63.8254 326.729 63.558 325.593 62.756C324.19 61.7535 323.321 59.949 323.321 57.8772C323.321 55.4712 324.256 53.934 325.459 52.9984C326.462 52.1964 327.865 51.8622 329.402 51.8622C330.338 51.8622 331.341 51.9959 332.477 52.4637C332.677 52.5305 332.811 52.6642 332.744 52.9315L332.677 53.533C332.677 53.8004 332.544 53.8672 332.343 53.8672C332.076 53.8672 331.006 53.2657 329.269 53.2657C328.066 53.2657 327.063 53.533 326.261 54.2014C325.326 55.0034 324.791 56.2064 324.791 57.8104C324.791 60.35 326.395 62.4887 329.402 62.4887C331.274 62.4887 332.544 61.7535 332.811 61.7535C333.012 61.7535 333.078 61.8872 333.078 62.0877L333.145 62.6223ZM339.16 56.4069C337.757 56.4069 336.821 57.4762 336.821 59.3475C336.821 61.152 337.757 62.5555 339.16 62.5555H339.294C340.63 62.5555 341.566 61.3525 341.566 59.4144C341.566 57.6767 340.697 56.4069 339.16 56.4069ZM339.16 63.8254C337.088 63.8254 335.417 62.2214 335.417 59.4812C335.417 56.8079 337.088 55.2039 339.361 55.2039C341.499 55.2039 343.037 56.741 343.037 59.3475C343.037 62.2214 341.232 63.8254 339.16 63.8254ZM355.467 63.6917C355.2 63.6917 355.133 63.558 355.133 63.2907V58.345C355.066 57.2757 354.532 56.5405 353.396 56.5405C352.794 56.5405 352.059 56.8078 351.391 57.6098C351.458 58.0108 351.457 58.4787 351.457 59.0134V63.2907C351.457 63.558 351.324 63.6917 351.123 63.6917H350.388C350.188 63.6917 350.054 63.558 350.054 63.2907V59.2139C350.054 59.0134 350.054 58.6124 349.987 58.1445C349.92 57.2757 349.386 56.5405 348.316 56.5405C347.715 56.5405 346.98 56.8079 346.378 57.4762V63.2907C346.378 63.558 346.245 63.6917 346.044 63.6917H345.376C345.108 63.6917 345.042 63.558 345.042 63.2907V55.8054C345.042 55.538 345.175 55.4044 345.376 55.4044L345.977 55.3375C346.244 55.3375 346.311 55.4712 346.378 55.6717V56.34C347.113 55.4712 347.915 55.2039 348.784 55.2039C349.853 55.2039 350.656 55.6717 351.057 56.5405C351.792 55.6049 352.727 55.2039 353.73 55.2039C354.933 55.2039 355.802 55.7385 356.203 56.741C356.47 57.4094 356.537 58.2114 356.537 59.0802V63.2239C356.537 63.4912 356.403 63.6248 356.203 63.6248H355.467M364.423 59.548C364.423 57.4762 363.354 56.5405 362.285 56.5405C361.616 56.5405 360.948 56.741 360.28 57.543V62.355C360.747 62.5555 361.349 62.6223 361.817 62.6223C363.421 62.6223 364.423 61.553 364.423 59.548ZM365.894 59.2807C365.894 62.0208 364.356 63.8254 361.616 63.8254C361.148 63.8254 360.68 63.7585 360.28 63.6248V67.3675C360.28 67.6349 360.146 67.7685 359.945 67.7685H359.21C358.943 67.7685 358.876 67.6349 358.876 67.3675V55.7385C358.876 55.4712 359.01 55.4044 359.21 55.3375L359.812 55.2707C360.079 55.2707 360.213 55.3375 360.213 55.6048V56.34C360.881 55.4712 361.75 55.137 362.685 55.137C364.423 55.2039 365.894 56.6073 365.894 59.2807ZM371.975 61.954V59.949C369.436 59.8822 368.7 60.751 368.7 61.4862C368.7 62.1545 369.168 62.6892 370.104 62.6892C370.772 62.6892 371.441 62.4218 371.975 61.954ZM367.364 61.6198C367.364 60.35 368.233 58.8797 371.975 58.8797V58.6123C371.975 58.1445 371.975 57.6098 371.842 57.2757C371.574 56.741 371.106 56.4737 370.304 56.4737C369.102 56.4737 368.366 57.0084 368.099 57.0084C367.965 57.0084 367.898 56.8747 367.832 56.6742V56.34C367.832 56.0727 367.898 55.939 368.166 55.8054C368.834 55.4712 369.703 55.2707 370.438 55.2707C371.842 55.2707 372.577 55.7385 372.978 56.4737C373.312 57.0752 373.379 57.7435 373.379 58.6792V61.6867C373.379 62.4887 373.579 62.756 374.181 62.756C374.448 62.8229 374.582 62.9565 374.582 63.157V63.4244C374.582 63.6249 374.448 63.7585 374.248 63.8254H373.646C372.978 63.8254 372.443 63.558 372.243 62.8897C371.508 63.6249 370.705 63.8922 369.837 63.8922C368.366 63.8254 367.364 62.9565 367.364 61.6198ZM381.532 63.6917C381.265 63.6917 381.198 63.558 381.198 63.2907V58.345C381.131 57.2757 380.597 56.5405 379.527 56.5405C378.926 56.5405 378.191 56.8079 377.589 57.4762V63.2907C377.589 63.558 377.456 63.6917 377.255 63.6917H376.52C376.253 63.6917 376.186 63.558 376.186 63.2907V55.8054C376.186 55.538 376.319 55.4044 376.52 55.4044L377.122 55.3375C377.389 55.3375 377.456 55.4712 377.522 55.6717V56.34C378.258 55.4712 379.06 55.2039 379.929 55.2039C381.132 55.2039 382 55.7385 382.401 56.741C382.669 57.4094 382.669 58.2114 382.669 59.0802V63.2239C382.669 63.4912 382.535 63.6248 382.335 63.6248H381.532M391.223 55.4044C391.491 55.4044 391.557 55.538 391.557 55.8054C391.357 57.0084 391.09 58.4119 390.622 60.0827C390.087 62.0209 389.352 63.8254 388.283 65.162C387.414 66.2982 386.278 67.2339 384.807 67.8354C384.607 67.9022 384.406 67.8353 384.339 67.6348L384.139 67.1002C384.005 66.8997 384.139 66.6992 384.339 66.6323C385.743 65.964 386.612 65.2957 387.146 64.4937C385.81 61.152 384.406 57.0752 384.005 55.8722C383.938 55.6049 384.005 55.4712 384.273 55.4712H385.142C385.342 55.4712 385.476 55.538 385.542 55.8054C385.877 56.8079 387.013 60.5505 388.015 63.2239C388.483 62.355 388.951 61.0184 389.285 59.7485C389.619 58.4787 389.887 57.0084 390.087 55.8054C390.087 55.6049 390.221 55.4712 390.421 55.4712H391.223" fill="white"/>
</g>
<defs>
<clipPath id="clip0_606_91669">
<rect width="401" height="67.8693" fill="white" transform="translate(0.916748)"/>
</clipPath>
</defs>
</svg>
