<svg width="16" height="15" viewBox="0 0 16 15" fill="none" xmlns="http://www.w3.org/2000/svg">
<path d="M10.7955 9.25549L10.4159 9.63282C10.4159 9.63282 9.51378 10.5299 7.05128 8.08132C4.5888 5.63283 5.49095 4.7358 5.49095 4.7358L5.72995 4.49814C6.31878 3.91269 6.37428 2.97275 5.86053 2.28656L4.80975 0.882889C4.17393 0.0335894 2.94533 -0.0786023 2.21657 0.646014L0.908571 1.94659C0.547221 2.30589 0.305071 2.77165 0.334438 3.28833C0.409563 4.61017 1.00762 7.45424 4.34483 10.7725C7.88378 14.2913 11.2044 14.4312 12.5623 14.3046C12.9918 14.2646 13.3653 14.0458 13.6663 13.7465L14.8501 12.5695C15.6492 11.7749 15.4239 10.4127 14.4014 9.85699L12.8094 8.99149C12.138 8.62657 11.3202 8.73374 10.7955 9.25549Z" fill="#E0EEF9"/>
</svg>
