<svg width="309" height="401" viewBox="0 0 309 401" fill="none" xmlns="http://www.w3.org/2000/svg">
<g style="mix-blend-mode:overlay" opacity="0.58">
<path d="M206.95 105.6V113.21H199.33V120.79H206.95V128.4H214.52V120.79H222.13V113.21H214.52V105.6H206.95Z" fill="#B0B0B0"/>
</g>
<g style="mix-blend-mode:overlay" opacity="0.21">
<path d="M301.23 299.48V303.68H297.03V307.85H301.23V312.05H305.4V307.85H309.6V303.68H305.4V299.48H301.23Z" fill="#B0B0B0"/>
</g>
<g style="mix-blend-mode:overlay" opacity="0.88">
<path d="M158.3 207.54V229.75H136.09V251.83H158.3V274.04H180.39V251.83H202.59V229.75H180.39V207.54H158.3Z" fill="#B0B0B0"/>
</g>
<g style="mix-blend-mode:overlay" opacity="0.25">
<path d="M123.76 66.4297V82.8297H107.36V99.1397H123.76V115.53H140.07V99.1397H156.46V82.8297H140.07V66.4297H123.76Z" fill="#B0B0B0"/>
</g>
<g style="mix-blend-mode:overlay" opacity="0.98">
<path d="M168.48 -6.94995V11.22H150.3V29.3H168.48V47.47H186.55V29.3H204.73V11.22H186.55V-6.94995H168.48Z" fill="#B0B0B0"/>
</g>
<g style="mix-blend-mode:overlay" opacity="0.5">
<path d="M250.24 5.51953V27.9995H227.75V50.3695H250.24V72.8495H272.6V50.3695H295.09V27.9995H272.6V5.51953H250.24Z" fill="#B0B0B0"/>
</g>
<g style="mix-blend-mode:overlay" opacity="0.96">
<path d="M58.4797 71.7402V77.3002H52.9297V82.8202H58.4797V88.3802H63.9997V82.8202H69.5597V77.3002H63.9997V71.7402H58.4797Z" fill="#B0B0B0"/>
</g>
<g style="mix-blend-mode:overlay" opacity="0.21">
<path d="M186.16 179.26V191.41H174.01V203.5H186.16V215.65H198.25V203.5H210.4V191.41H198.25V179.26H186.16Z" fill="#B0B0B0"/>
</g>
<g style="mix-blend-mode:overlay" opacity="0.24">
<path d="M308.24 244.65V248.78H304.12V252.88H308.24V257.01H312.35V252.88H316.47V248.78H312.35V244.65H308.24Z" fill="#B0B0B0"/>
</g>
<g style="mix-blend-mode:overlay" opacity="0.27">
<path d="M171.42 330.68V336.1H165.99V341.5H171.42V346.93H176.82V341.5H182.25V336.1H176.82V330.68H171.42Z" fill="#B0B0B0"/>
</g>
<g style="mix-blend-mode:overlay" opacity="0.9">
<path d="M248.6 97.46V124.82H221.25V152.04H248.6V179.4H275.82V152.04H303.18V124.82H275.82V97.46H248.6Z" fill="#B0B0B0"/>
</g>
<g style="mix-blend-mode:overlay" opacity="0.26">
<path d="M137.75 272.3V278.16H131.88V284H137.75V289.86H143.58V284H149.44V278.16H143.58V272.3H137.75Z" fill="#B0B0B0"/>
</g>
<g style="mix-blend-mode:overlay" opacity="0.39">
<path d="M191.38 223.66V258.88H156.16V293.92H191.38V329.14H226.41V293.92H261.63V258.88H226.41V223.66H191.38Z" fill="#B0B0B0"/>
</g>
<g style="mix-blend-mode:overlay" opacity="0.59">
<path d="M175.42 60.4697V75.5897H160.3V90.6297H175.42V105.75H190.46V90.6297H205.58V75.5897H190.46V60.4697H175.42Z" fill="#B0B0B0"/>
</g>
<g style="mix-blend-mode:overlay" opacity="0.87">
<path d="M107.99 199.74V204.24H103.49V208.72H107.99V213.23H112.47V208.72H116.98V204.24H112.47V199.74H107.99Z" fill="#B0B0B0"/>
</g>
<g style="mix-blend-mode:overlay" opacity="0.32">
<path d="M259.5 170.04V190.69H238.84V211.24H259.5V231.9H280.05V211.24H300.71V190.69H280.05V170.04H259.5Z" fill="#B0B0B0"/>
</g>
<g style="mix-blend-mode:overlay" opacity="0.3">
<path d="M242.51 209.53V238.96H213.09V268.23H242.51V297.66H271.79V268.23H301.22V238.96H271.79V209.53H242.51Z" fill="#B0B0B0"/>
</g>
<g style="mix-blend-mode:overlay" opacity="0.51">
<path d="M18.8703 11.8105V17.4006H13.2803V22.9605H18.8703V28.5506H24.4403V22.9605H30.0303V17.4006H24.4403V11.8105H18.8703Z" fill="#B0B0B0"/>
</g>
<g style="mix-blend-mode:overlay" opacity="0.4">
<path d="M196.13 384.87V389.97H191.04V395.04H196.13V400.13H201.2V395.04H206.29V389.97H201.2V384.87H196.13Z" fill="#B0B0B0"/>
</g>
<g style="mix-blend-mode:overlay" opacity="0.66">
<path d="M83.12 107.49V128.7H61.91V149.8H83.12V171H104.21V149.8H125.42V128.7H104.21V107.49H83.12Z" fill="#B0B0B0"/>
</g>
<g style="mix-blend-mode:overlay" opacity="0.28">
<path d="M223.71 54.7998V65.8298H212.68V76.7898H223.71V87.8198H234.67V76.7898H245.7V65.8298H234.67V54.7998H223.71Z" fill="#B0B0B0"/>
</g>
<g style="mix-blend-mode:overlay" opacity="0.91">
<path d="M232.49 328.76V348.46H212.79V368.06H232.49V387.77H252.09V368.06H271.8V348.46H252.09V328.76H232.49Z" fill="#B0B0B0"/>
</g>
<g style="mix-blend-mode:overlay" opacity="0.53">
<path d="M94.0196 -3.31055V21.8995H68.8096V46.9895H94.0196V72.2095H119.11V46.9895H144.33V21.8995H119.11V-3.31055H94.0196Z" fill="#B0B0B0"/>
</g>
<g style="mix-blend-mode:overlay" opacity="0.89">
<path d="M146.26 101.96V135.37H112.85V168.59H146.26V202H179.49V168.59H212.89V135.37H179.49V101.96H146.26Z" fill="#B0B0B0"/>
</g>
</svg>
