<svg width="24" height="25" viewBox="0 0 24 25" fill="none" xmlns="http://www.w3.org/2000/svg">
<circle cx="12" cy="7.56982" r="3" stroke="#1E293B" stroke-width="2" stroke-linecap="round" stroke-linejoin="round"/>
<path d="M12 13.5698C12.9192 13.5698 13.8294 13.7512 14.6787 14.103C15.528 14.4548 16.3002 14.9696 16.9502 15.6196C17.6002 16.2696 18.115 17.0419 18.4668 17.8911C18.4826 17.9293 18.4986 17.9679 18.5137 18.0063C18.6639 18.3884 18.581 18.729 18.3232 19.019C18.0441 19.3329 17.5594 19.5698 17 19.5698H7C6.44061 19.5698 5.95589 19.3329 5.67676 19.019C5.41898 18.729 5.3361 18.3884 5.48633 18.0063C5.50145 17.9679 5.51739 17.9293 5.5332 17.8911C5.88499 17.0419 6.39981 16.2696 7.0498 15.6196C7.6998 14.9696 8.47203 14.4548 9.32129 14.103C10.1706 13.7512 11.0807 13.5698 12 13.5698Z" stroke="#1E293B" stroke-width="2" stroke-linecap="round" stroke-linejoin="round"/>
</svg>
