<svg width="17" height="15" viewBox="0 0 17 15" fill="none" xmlns="http://www.w3.org/2000/svg">
<path d="M8.49875 0.515088C8.58667 0.316933 8.86788 0.316933 8.95579 0.515089L10.975 5.06646C11.0124 5.15064 11.093 5.20747 11.1848 5.21437L16.3956 5.60601C16.6218 5.62301 16.7102 5.90821 16.5334 6.05023L12.5877 9.21886C12.5114 9.2802 12.4778 9.38049 12.502 9.47543L13.7116 14.2293C13.766 14.4432 13.5366 14.6176 13.345 14.5079L8.8515 11.9348C8.77455 11.8907 8.68 11.8907 8.60304 11.9348L4.1095 14.5079C3.91791 14.6176 3.68855 14.4432 3.74299 14.2293L4.95256 9.47543C4.97671 9.38049 4.94319 9.2802 4.86681 9.21886L0.921167 6.05023C0.744315 5.90821 0.832786 5.62301 1.05897 5.60601L6.26975 5.21437C6.36158 5.20747 6.44218 5.15064 6.47953 5.06646L8.49875 0.515088Z" fill="#0F0BC7"/>
</svg>
